<?xml version="1.0" encoding="utf-8"?>
<!-- Generator: Adobe Illustrator 16.0.0, SVG Export Plug-In . SVG Version: 6.00 Build 0)  -->
<!DOCTYPE svg PUBLIC "-//W3C//DTD SVG 1.1//EN" "http://www.w3.org/Graphics/SVG/1.1/DTD/svg11.dtd">
<svg version="1.1" id="Слой_1" xmlns="http://www.w3.org/2000/svg" xmlns:xlink="http://www.w3.org/1999/xlink" x="0px" y="0px"
	 width="64px" height="64px" viewBox="0 0 64 64" enable-background="new 0 0 64 64" xml:space="preserve">
<path fill="#8E293A" d="M64,52c0,6.627-5.373,12-12,12H12C5.373,64,0,58.627,0,52V12C0,5.373,5.373,0,12,0h40
	c6.627,0,12,5.373,12,12V52z"/>
<path fill="#C63938" d="M64,51.672c0,6.586-5.373,11.925-12,11.925H12c-6.627,0-12-5.339-12-11.925V11.924C0,5.339,5.373,0,12,0h40
	c6.627,0,12,5.339,12,11.924V51.672z"/>
<path fill="#E4405F" d="M64,51.506c0,6.565-5.373,11.887-12,11.887H12c-6.627,0-12-5.321-12-11.887v-39.62C0,5.322,5.373,0,12,0h40
	c6.627,0,12,5.322,12,11.886V51.506z"/>
<path fill="#FFFFFF" d="M32,8c-6.519,0-7.335,0.03-9.894,0.144C19.55,8.264,17.81,8.666,16.28,9.26
	c-1.578,0.612-2.918,1.434-4.251,2.769c-1.334,1.333-2.16,2.67-2.769,4.251c-0.594,1.53-0.999,3.271-1.116,5.826
	C8.024,24.665,8,25.481,8,32c0,6.519,0.03,7.335,0.144,9.894c0.12,2.557,0.522,4.299,1.116,5.826
	c0.612,1.579,1.435,2.92,2.769,4.251c1.333,1.335,2.67,2.16,4.251,2.77c1.53,0.594,3.271,0.999,5.826,1.116
	C24.665,55.976,25.481,56,32,56c6.519,0,7.335-0.03,9.894-0.144c2.557-0.121,4.299-0.522,5.826-1.116
	c1.579-0.612,2.92-1.435,4.251-2.77c1.335-1.331,2.16-2.669,2.77-4.251c0.594-1.53,0.999-3.27,1.116-5.826
	C55.976,39.335,56,38.519,56,32c0-6.519-0.03-7.335-0.144-9.894c-0.121-2.556-0.522-4.299-1.116-5.826
	c-0.612-1.578-1.435-2.918-2.77-4.251c-1.331-1.335-2.669-2.16-4.251-2.769c-1.53-0.594-3.27-0.999-5.826-1.116
	C39.335,8.024,38.519,8,32,8z M32,12.32c6.408,0,7.17,0.03,9.698,0.144c2.341,0.108,3.609,0.498,4.456,0.828
	c1.122,0.435,1.919,0.954,2.76,1.794c0.84,0.84,1.358,1.638,1.794,2.76c0.33,0.846,0.72,2.115,0.828,4.455
	c0.113,2.532,0.141,3.291,0.141,9.699c0,6.408-0.03,7.17-0.144,9.698c-0.108,2.341-0.498,3.609-0.828,4.456
	c-0.436,1.122-0.954,1.919-1.794,2.76c-0.841,0.84-1.639,1.358-2.76,1.794c-0.847,0.33-2.115,0.72-4.456,0.828
	c-2.531,0.113-3.29,0.141-9.698,0.141s-7.17-0.03-9.699-0.144c-2.34-0.108-3.609-0.498-4.455-0.828
	c-1.122-0.436-1.92-0.954-2.76-1.794c-0.84-0.841-1.359-1.639-1.794-2.76c-0.33-0.847-0.72-2.115-0.828-4.456
	C12.35,39.17,12.32,38.408,12.32,32c0-6.408,0.03-7.17,0.144-9.699c0.108-2.34,0.498-3.609,0.828-4.455
	c0.435-1.122,0.954-1.92,1.794-2.76c0.84-0.84,1.638-1.359,2.76-1.794c0.846-0.33,2.115-0.72,4.455-0.828
	C24.83,12.35,25.592,12.32,32,12.32z M32,19.676c-6.81,0-12.324,5.52-12.324,12.324c0,6.811,5.52,12.323,12.324,12.323
	c6.811,0,12.323-5.519,12.323-12.323C44.323,25.19,38.805,19.676,32,19.676z M32,40.001c-4.419,0-8.001-3.582-8.001-8.001
	s3.582-8.001,8.001-8.001s8.001,3.582,8.001,8.001S36.419,40.001,32,40.001z M47.689,19.19c0,1.59-1.29,2.88-2.879,2.88
	c-1.591,0-2.881-1.29-2.881-2.88s1.29-2.88,2.881-2.88C46.399,16.31,47.689,17.6,47.689,19.19z"/>
</svg>
