<?xml version="1.0" encoding="utf-8"?>
<!-- Generator: Adobe Illustrator 16.0.0, SVG Export Plug-In . SVG Version: 6.00 Build 0)  -->
<!DOCTYPE svg PUBLIC "-//W3C//DTD SVG 1.1//EN" "http://www.w3.org/Graphics/SVG/1.1/DTD/svg11.dtd">
<svg version="1.1" id="Слой_1" xmlns="http://www.w3.org/2000/svg" xmlns:xlink="http://www.w3.org/1999/xlink" x="0px" y="0px"
	 width="365px" height="27px" viewBox="0 0 365 27" enable-background="new 0 0 365 27" xml:space="preserve">
<path fill="#034EA2" d="M9.905,5.851V23.5h0.751V7.116c1.811,0.753,3.084,2.522,3.084,4.592c0,1.815-0.911,3.32-2.377,4.189v1.106
	c1.957-0.989,3.377-2.973,3.377-5.296C14.741,8.814,12.666,6.399,9.905,5.851z M6.506,10.656l-0.244-0.314
	c-1.104,0.897-1.924,2.147-2.275,3.654c-0.703,3.012,0.703,6.33,3.93,7.725l0.098-0.473c-2.827-1.052-4.318-4.321-3.653-7.167
	C4.693,12.655,5.455,11.5,6.506,10.656z M3.225,13.839c0.525-2.251,1.997-4.028,3.874-4.983L6.605,8.179
	c-2.047,1.068-3.646,3.011-4.22,5.468c-1.023,4.391,1.621,8.74,5.906,9.72c0.403,0.092,0.646,0.104,1.047,0.133v-0.794
	c-0.376-0.022-0.486-0.036-0.864-0.125C4.652,21.71,2.301,17.793,3.225,13.839z M15.136,11.59c0,1.463-0.499,2.805-1.33,3.861
	l0.318,0.224c0.873-1.119,1.396-2.541,1.396-4.084c0-3.085-2.079-5.667-4.872-6.357l-0.001,0.404
	C13.232,6.314,15.136,8.72,15.136,11.59z M9.261,3.5c-0.412,0-0.821,0.034-1.217,0.094l0.074,0.808
	C8.49,4.338,8.873,4.306,9.261,4.306c3.916,0,7.089,3.29,7.089,7.346c0,2.371-1.084,4.48-2.768,5.823l0.638,0.547
	c1.82-1.491,2.987-3.793,2.987-6.37C17.208,7.149,13.65,3.5,9.261,3.5z M8.674,10.956l-0.597-0.82
	c-1.59,0.76-2.829,2.202-3.256,4.036c-0.648,2.777,0.778,5.554,3.275,6.732l0.215-1.008c-1.947-1.035-3.033-3.267-2.514-5.501
	C6.169,12.803,7.273,11.568,8.674,10.956z"/>
<g>
	<path fill="#034EA2" d="M21.208,9.036h-0.06h-1.05V4.584h0.06h2.982v0.864h-1.932V9.036z"/>
	<path fill="#034EA2" d="M24.955,9.132c-0.106-0.012-0.213-0.034-0.321-0.066C24.35,8.99,24.089,8.828,23.851,8.58
		c-0.238-0.248-0.357-0.636-0.357-1.164c0-0.528,0.119-0.915,0.357-1.161c0.238-0.246,0.501-0.411,0.789-0.495
		c0.108-0.028,0.214-0.048,0.318-0.06c0.104-0.012,0.202-0.018,0.294-0.018h0.06c0.092,0,0.19,0.006,0.294,0.018
		c0.104,0.012,0.208,0.032,0.312,0.06c0.292,0.08,0.558,0.244,0.798,0.492c0.24,0.248,0.36,0.636,0.36,1.164
		c0,0.532-0.12,0.922-0.36,1.17c-0.24,0.248-0.506,0.41-0.798,0.486C25.814,9.1,25.71,9.12,25.606,9.132
		c-0.104,0.012-0.202,0.018-0.294,0.018l-0.06,0.006C25.16,9.152,25.061,9.144,24.955,9.132z M25.765,8.31
		c0.102-0.128,0.169-0.268,0.201-0.42c0.02-0.088,0.033-0.174,0.039-0.258c0.006-0.084,0.009-0.156,0.009-0.216
		S26.011,7.284,26.005,7.2c-0.006-0.084-0.019-0.17-0.039-0.258c-0.036-0.147-0.104-0.286-0.204-0.414s-0.26-0.194-0.48-0.198
		c-0.22,0.008-0.38,0.075-0.48,0.201s-0.166,0.265-0.198,0.417c-0.024,0.088-0.038,0.173-0.042,0.255
		c-0.004,0.082-0.006,0.153-0.006,0.213c0,0.364,0.053,0.621,0.159,0.771s0.223,0.245,0.351,0.285
		c0.036,0.012,0.072,0.021,0.108,0.027c0.036,0.006,0.072,0.009,0.108,0.009C25.502,8.504,25.663,8.438,25.765,8.31z"/>
	<path fill="#034EA2" d="M30.958,7.818c-0.044,0.352-0.149,0.62-0.315,0.804s-0.343,0.314-0.531,0.39
		c-0.148,0.06-0.292,0.097-0.432,0.111s-0.248,0.021-0.324,0.021l-0.06,0.006c-0.568-0.004-0.996-0.164-1.284-0.48
		C27.724,8.354,27.58,7.94,27.58,7.428c0-0.092,0.006-0.19,0.018-0.294c0.012-0.104,0.032-0.208,0.06-0.312
		c0.08-0.288,0.246-0.55,0.498-0.786s0.652-0.354,1.2-0.354h0.06c0.428,0,0.749,0.088,0.963,0.264
		c0.214,0.176,0.361,0.368,0.441,0.576c0.032,0.076,0.055,0.151,0.069,0.225c0.014,0.074,0.025,0.143,0.033,0.207h-0.06h-0.93
		c-0.024-0.208-0.079-0.356-0.165-0.444s-0.179-0.142-0.279-0.162c-0.024-0.008-0.047-0.013-0.069-0.015
		C29.397,6.331,29.374,6.33,29.35,6.33c-0.032,0-0.065,0.003-0.099,0.009c-0.034,0.006-0.067,0.013-0.099,0.021
		c-0.128,0.036-0.245,0.125-0.351,0.267c-0.106,0.142-0.159,0.385-0.159,0.729c0,0.356,0.049,0.615,0.147,0.777
		c0.098,0.162,0.205,0.267,0.321,0.315c0.04,0.02,0.079,0.034,0.117,0.042c0.038,0.008,0.075,0.012,0.111,0.012
		c0.148-0.004,0.263-0.044,0.345-0.12c0.082-0.076,0.143-0.158,0.183-0.246c0.028-0.064,0.047-0.125,0.057-0.183
		c0.01-0.058,0.017-0.103,0.021-0.135h0.06H30.958z"/>
	<path fill="#034EA2" d="M31.816,10.212V9.564h0.06c0.04,0.008,0.083,0.016,0.129,0.024C32.051,9.596,32.101,9.6,32.152,9.6
		c0.144-0.004,0.244-0.049,0.3-0.135c0.056-0.086,0.104-0.191,0.144-0.315L32.645,9l-1.41-3.198h0.06h1.164l0.714,2.01l0.558-2.01
		h0.06h1.026L33.694,9.21c-0.088,0.276-0.205,0.521-0.351,0.735c-0.146,0.214-0.409,0.321-0.789,0.321l-0.06,0.006
		c-0.032-0.004-0.065-0.007-0.099-0.009c-0.034-0.002-0.069-0.003-0.105-0.003c-0.06-0.004-0.12-0.009-0.18-0.015
		s-0.114-0.013-0.162-0.021c-0.028-0.004-0.053-0.007-0.075-0.009c-0.022-0.002-0.041-0.005-0.057-0.009V10.212z"/>
	<path fill="#034EA2" d="M35.278,8.388c0.188-0.292,0.319-0.602,0.393-0.93c0.074-0.328,0.111-0.68,0.111-1.056v-0.6h0.06h2.766
		v2.586h0.534l-0.054,1.488h-0.06h-0.822v-0.84h-2.418v0.84h-0.06h-0.822l-0.054-1.488H35.278z M36.73,6.45l-0.006,0.342
		c-0.004,0.136-0.017,0.31-0.039,0.522c-0.022,0.212-0.073,0.43-0.153,0.654c-0.024,0.072-0.052,0.143-0.084,0.213
		c-0.032,0.07-0.068,0.139-0.108,0.207h1.242V6.45H36.73z"/>
	<path fill="#034EA2" d="M39.688,6.846c0-0.028,0.002-0.056,0.006-0.084s0.008-0.058,0.012-0.09c0.04-0.236,0.168-0.454,0.384-0.654
		c0.216-0.2,0.59-0.3,1.122-0.3h0.06c0.44,0,0.762,0.065,0.966,0.195s0.34,0.273,0.408,0.429c0.048,0.104,0.076,0.204,0.084,0.3
		c0.008,0.096,0.012,0.174,0.012,0.234c0,0.004,0,0.007,0,0.009s0,0.005,0,0.009L42.73,8.37c0,0.012,0,0.023,0,0.033
		c0,0.01,0,0.017,0,0.021s0,0.008,0,0.012s0.002,0.008,0.006,0.012c0,0.012,0,0.028,0,0.048s0,0.052,0,0.096
		c0,0.024,0.001,0.049,0.003,0.075c0.002,0.026,0.005,0.053,0.009,0.081c0.008,0.052,0.025,0.102,0.051,0.15
		c0.026,0.048,0.067,0.086,0.123,0.114v0.024h-0.06h-1.014l-0.078-0.282c-0.06,0.064-0.126,0.119-0.198,0.165
		C41.5,8.965,41.426,9.002,41.35,9.03c-0.14,0.048-0.271,0.077-0.393,0.087c-0.122,0.01-0.201,0.015-0.237,0.015l-0.06,0.006
		c-0.312-0.004-0.545-0.055-0.699-0.153c-0.154-0.098-0.263-0.209-0.327-0.333C39.59,8.564,39.563,8.48,39.553,8.4
		c-0.01-0.08-0.015-0.14-0.015-0.18c0-0.396,0.139-0.655,0.417-0.777c0.278-0.122,0.585-0.205,0.921-0.249
		c0.012,0,0.023-0.001,0.033-0.003c0.01-0.002,0.021-0.003,0.033-0.003c0.072-0.008,0.138-0.016,0.198-0.024
		c0.06-0.008,0.114-0.014,0.162-0.018c0.168-0.028,0.279-0.06,0.333-0.096c0.054-0.036,0.083-0.104,0.087-0.204
		c0-0.008,0-0.015,0-0.021s0-0.013,0-0.021s0-0.015,0-0.021s0-0.013,0-0.021c0-0.024-0.003-0.052-0.009-0.084
		c-0.006-0.032-0.015-0.066-0.027-0.102c-0.024-0.06-0.07-0.115-0.138-0.165c-0.068-0.05-0.172-0.077-0.312-0.081
		c-0.176,0.004-0.304,0.041-0.384,0.111c-0.08,0.07-0.132,0.147-0.156,0.231c-0.008,0.028-0.014,0.057-0.018,0.087
		c-0.004,0.03-0.006,0.059-0.006,0.087h-0.06H39.688z M41.734,7.524c-0.028,0.012-0.055,0.024-0.081,0.036
		c-0.026,0.012-0.053,0.02-0.081,0.024c-0.036,0.012-0.072,0.022-0.108,0.03C41.428,7.622,41.39,7.63,41.35,7.638
		c-0.016,0-0.032,0.001-0.048,0.003S41.27,7.646,41.254,7.65c-0.016,0.004-0.033,0.007-0.051,0.009s-0.035,0.005-0.051,0.009
		c-0.14,0.028-0.269,0.071-0.387,0.129c-0.118,0.058-0.177,0.171-0.177,0.339c0,0.1,0.037,0.191,0.111,0.273
		s0.191,0.127,0.351,0.135c0.032,0,0.066-0.004,0.102-0.012c0.036-0.008,0.072-0.018,0.108-0.03c0.116-0.04,0.221-0.121,0.315-0.243
		c0.094-0.122,0.145-0.309,0.153-0.561L41.734,7.524z"/>
	<path fill="#034EA2" d="M44.536,5.802L44.53,6.144c0.036-0.04,0.073-0.077,0.111-0.111s0.075-0.063,0.111-0.087
		c0.14-0.104,0.277-0.172,0.411-0.204c0.134-0.032,0.257-0.048,0.369-0.048h0.06c0.492,0,0.86,0.17,1.104,0.51
		c0.244,0.34,0.366,0.748,0.366,1.224c0,0.46-0.123,0.859-0.369,1.197c-0.246,0.338-0.619,0.507-1.119,0.507l-0.06,0.006
		c-0.176-0.004-0.345-0.038-0.507-0.102c-0.162-0.064-0.299-0.152-0.411-0.264v1.44h-0.06H43.57v-4.41h0.06H44.536z M44.725,8.148
		c0.118,0.196,0.301,0.298,0.549,0.306c0.248-0.008,0.431-0.11,0.549-0.306C45.941,7.952,46,7.708,46,7.416
		c0-0.34-0.068-0.596-0.204-0.768c-0.136-0.172-0.31-0.262-0.522-0.27c-0.208,0.008-0.381,0.098-0.519,0.27
		c-0.138,0.172-0.207,0.428-0.207,0.768C44.548,7.708,44.607,7.952,44.725,8.148z"/>
	<path fill="#034EA2" d="M50.944,7.818c-0.044,0.352-0.149,0.62-0.315,0.804s-0.343,0.314-0.531,0.39
		c-0.148,0.06-0.292,0.097-0.432,0.111s-0.248,0.021-0.324,0.021l-0.06,0.006c-0.568-0.004-0.996-0.164-1.284-0.48
		c-0.288-0.316-0.432-0.729-0.432-1.242c0-0.092,0.006-0.19,0.018-0.294c0.012-0.104,0.032-0.208,0.06-0.312
		c0.08-0.288,0.246-0.55,0.498-0.786s0.652-0.354,1.2-0.354h0.06c0.428,0,0.749,0.088,0.963,0.264
		c0.214,0.176,0.361,0.368,0.441,0.576c0.032,0.076,0.055,0.151,0.069,0.225c0.014,0.074,0.025,0.143,0.033,0.207h-0.06h-0.93
		c-0.024-0.208-0.079-0.356-0.165-0.444s-0.179-0.142-0.279-0.162c-0.024-0.008-0.047-0.013-0.069-0.015
		C49.383,6.331,49.36,6.33,49.336,6.33c-0.032,0-0.065,0.003-0.099,0.009c-0.034,0.006-0.067,0.013-0.099,0.021
		c-0.128,0.036-0.245,0.125-0.351,0.267c-0.106,0.142-0.159,0.385-0.159,0.729c0,0.356,0.049,0.615,0.147,0.777
		c0.098,0.162,0.205,0.267,0.321,0.315c0.04,0.02,0.079,0.034,0.117,0.042c0.038,0.008,0.075,0.012,0.111,0.012
		c0.148-0.004,0.263-0.044,0.345-0.12c0.082-0.076,0.143-0.158,0.183-0.246c0.028-0.064,0.047-0.125,0.057-0.183
		c0.01-0.058,0.017-0.103,0.021-0.135h0.06H50.944z"/>
	<path fill="#034EA2" d="M51.28,6.45V5.802h0.06h3.102V6.45h-1.068v2.586h-0.06h-0.966V6.45H51.28z"/>
	<path fill="#034EA2" d="M56.938,5.802c0.376,0,0.643,0.069,0.801,0.207c0.158,0.138,0.237,0.331,0.237,0.579
		c0,0.212-0.055,0.377-0.165,0.495c-0.11,0.118-0.231,0.197-0.363,0.237c-0.021,0.004-0.038,0.008-0.054,0.012
		s-0.032,0.008-0.048,0.012v0.018c0.284,0.052,0.484,0.149,0.6,0.291c0.116,0.142,0.174,0.327,0.174,0.555
		c0,0.324-0.107,0.543-0.321,0.657c-0.214,0.114-0.503,0.171-0.867,0.171h-0.06h-1.92V5.802h0.06H56.938z M55.978,7.086h0.444
		c0.204,0,0.342-0.028,0.414-0.084c0.072-0.056,0.108-0.136,0.108-0.24c0-0.1-0.031-0.183-0.093-0.249s-0.199-0.099-0.411-0.099
		h-0.462V7.086z M55.978,8.424h0.546c0.148,0,0.275-0.024,0.381-0.072s0.159-0.146,0.159-0.294c0-0.152-0.053-0.254-0.159-0.306
		c-0.106-0.052-0.239-0.078-0.399-0.078h-0.528V8.424z"/>
	<path fill="#034EA2" d="M62.068,8.1c-0.012,0.052-0.028,0.105-0.048,0.159C62,8.313,61.974,8.368,61.942,8.424
		c-0.1,0.18-0.268,0.344-0.504,0.492s-0.584,0.222-1.044,0.222l-0.06,0.006c-0.064-0.004-0.175-0.014-0.333-0.03
		c-0.158-0.016-0.327-0.062-0.507-0.138c-0.224-0.096-0.428-0.263-0.612-0.501c-0.184-0.238-0.276-0.591-0.276-1.059
		c0-0.512,0.158-0.926,0.474-1.242S59.838,5.7,60.406,5.7h0.06c0.56,0,0.978,0.164,1.254,0.492c0.276,0.328,0.414,0.756,0.414,1.284
		V7.62h-2.472c0,0.036,0.001,0.072,0.003,0.108S59.672,7.8,59.68,7.836c0.028,0.168,0.098,0.324,0.21,0.468
		c0.112,0.144,0.284,0.22,0.516,0.228c0.152-0.008,0.287-0.048,0.405-0.12C60.929,8.34,61.002,8.236,61.03,8.1h0.06H62.068z
		 M61.078,7.116c-0.004-0.208-0.052-0.392-0.144-0.552c-0.092-0.16-0.262-0.244-0.51-0.252c-0.2,0.008-0.353,0.062-0.459,0.162
		s-0.183,0.208-0.231,0.324c-0.02,0.06-0.036,0.117-0.048,0.171c-0.012,0.054-0.02,0.103-0.024,0.147H61.078z"/>
	<path fill="#034EA2" d="M63.82,9.036h-0.06h-0.966V5.802h0.06h0.966V7.02h1.104V5.802h0.06h0.966v3.234h-0.06h-0.966V7.668H63.82
		V9.036z"/>
	<path fill="#034EA2" d="M67.792,9.036h-0.06h-0.966V5.802h0.06h0.966V7.02h1.104V5.802h0.06h0.966v3.234h-0.06h-0.966V7.668h-1.104
		V9.036z"/>
	<path fill="#034EA2" d="M72.042,9.132c-0.106-0.012-0.213-0.034-0.321-0.066c-0.284-0.076-0.545-0.238-0.783-0.486
		c-0.238-0.248-0.357-0.636-0.357-1.164c0-0.528,0.119-0.915,0.357-1.161c0.238-0.246,0.501-0.411,0.789-0.495
		c0.108-0.028,0.214-0.048,0.318-0.06c0.104-0.012,0.202-0.018,0.294-0.018h0.06c0.092,0,0.19,0.006,0.294,0.018
		c0.104,0.012,0.208,0.032,0.312,0.06c0.292,0.08,0.558,0.244,0.798,0.492c0.24,0.248,0.36,0.636,0.36,1.164
		c0,0.532-0.12,0.922-0.36,1.17c-0.24,0.248-0.506,0.41-0.798,0.486c-0.104,0.028-0.208,0.048-0.312,0.06
		c-0.104,0.012-0.202,0.018-0.294,0.018l-0.06,0.006C72.248,9.152,72.148,9.144,72.042,9.132z M72.853,8.31
		c0.102-0.128,0.169-0.268,0.201-0.42c0.02-0.088,0.033-0.174,0.039-0.258c0.006-0.084,0.009-0.156,0.009-0.216
		S73.099,7.284,73.093,7.2c-0.006-0.084-0.019-0.17-0.039-0.258c-0.036-0.147-0.104-0.286-0.204-0.414s-0.26-0.194-0.48-0.198
		c-0.22,0.008-0.38,0.075-0.48,0.201s-0.166,0.265-0.198,0.417c-0.024,0.088-0.038,0.173-0.042,0.255
		c-0.004,0.082-0.006,0.153-0.006,0.213c0,0.364,0.053,0.621,0.159,0.771s0.223,0.245,0.351,0.285
		c0.036,0.012,0.072,0.021,0.108,0.027c0.036,0.006,0.072,0.009,0.108,0.009C72.589,8.504,72.75,8.438,72.853,8.31z"/>
	<path fill="#034EA2" d="M78.129,8.1c-0.012,0.052-0.028,0.105-0.048,0.159c-0.02,0.054-0.046,0.109-0.078,0.165
		c-0.1,0.18-0.268,0.344-0.504,0.492s-0.584,0.222-1.044,0.222l-0.06,0.006c-0.064-0.004-0.175-0.014-0.333-0.03
		c-0.158-0.016-0.327-0.062-0.507-0.138c-0.224-0.096-0.428-0.263-0.612-0.501c-0.184-0.238-0.276-0.591-0.276-1.059
		c0-0.512,0.158-0.926,0.474-1.242S75.899,5.7,76.468,5.7h0.06c0.56,0,0.978,0.164,1.254,0.492c0.276,0.328,0.414,0.756,0.414,1.284
		V7.62h-2.472c0,0.036,0.001,0.072,0.003,0.108s0.007,0.072,0.015,0.108c0.028,0.168,0.098,0.324,0.21,0.468
		c0.112,0.144,0.284,0.22,0.516,0.228c0.152-0.008,0.287-0.048,0.405-0.12c0.118-0.072,0.191-0.176,0.219-0.312h0.06H78.129z
		 M77.14,7.116c-0.004-0.208-0.052-0.392-0.144-0.552c-0.092-0.16-0.262-0.244-0.51-0.252c-0.2,0.008-0.353,0.062-0.459,0.162
		s-0.183,0.208-0.231,0.324c-0.02,0.06-0.036,0.117-0.048,0.171c-0.012,0.054-0.02,0.103-0.024,0.147H77.14z"/>
	<path fill="#034EA2" d="M84.363,4.284c-0.016,0.372-0.15,0.612-0.402,0.72c-0.252,0.108-0.526,0.18-0.822,0.216
		c-0.004,0-0.007,0-0.009,0s-0.005,0-0.009,0c-0.364,0.044-0.697,0.132-0.999,0.264c-0.302,0.132-0.481,0.482-0.537,1.05
		c0.108-0.228,0.27-0.397,0.486-0.507c0.216-0.11,0.444-0.175,0.684-0.195c0.032,0,0.063-0.001,0.093-0.003
		c0.03-0.002,0.059-0.003,0.087-0.003h0.06c0.508,0,0.897,0.153,1.167,0.459s0.405,0.685,0.405,1.137
		c0,0.496-0.144,0.905-0.432,1.227c-0.288,0.322-0.71,0.483-1.266,0.483l-0.06,0.006c-0.096-0.004-0.2-0.012-0.312-0.024
		c-0.112-0.012-0.226-0.038-0.342-0.078c-0.292-0.088-0.56-0.293-0.804-0.615c-0.244-0.322-0.366-0.853-0.366-1.593
		c0-0.868,0.162-1.458,0.486-1.77c0.324-0.312,0.802-0.496,1.434-0.552c0.032-0.004,0.063-0.007,0.093-0.009
		c0.03-0.002,0.059-0.005,0.087-0.009c0.136-0.012,0.235-0.03,0.297-0.054s0.107-0.074,0.135-0.15h0.06H84.363z M82.291,8.262
		c0.146,0.144,0.313,0.22,0.501,0.228c0.184-0.008,0.349-0.084,0.495-0.228s0.219-0.404,0.219-0.78c0-0.304-0.049-0.527-0.147-0.669
		c-0.098-0.142-0.205-0.237-0.321-0.285c-0.044-0.02-0.087-0.034-0.129-0.042c-0.042-0.008-0.081-0.012-0.117-0.012
		s-0.084,0.006-0.144,0.018c-0.06,0.012-0.12,0.036-0.18,0.072c-0.1,0.056-0.191,0.153-0.273,0.291
		c-0.082,0.138-0.123,0.347-0.123,0.627C82.071,7.858,82.145,8.118,82.291,8.262z"/>
	<path fill="#034EA2" d="M86.655,7.02c0.036-0.376,0.201-0.692,0.495-0.948s0.693-0.384,1.197-0.384h0.06
		c0.548,0,0.977,0.15,1.287,0.45c0.31,0.3,0.465,0.726,0.465,1.278c0,0.532-0.12,0.922-0.36,1.17
		c-0.24,0.248-0.506,0.41-0.798,0.486c-0.104,0.028-0.208,0.048-0.312,0.06c-0.104,0.012-0.202,0.018-0.294,0.018l-0.06,0.006
		c-0.472-0.004-0.827-0.102-1.065-0.294c-0.238-0.192-0.405-0.402-0.501-0.63c-0.04-0.1-0.071-0.199-0.093-0.297
		c-0.022-0.098-0.037-0.187-0.045-0.267h-0.378v1.368h-0.06h-0.966V5.802h0.06h0.966V7.02H86.655z M88.467,8.502
		c0.036-0.004,0.074-0.012,0.114-0.024c0.128-0.04,0.246-0.135,0.354-0.285c0.108-0.15,0.162-0.409,0.162-0.777
		c0-0.364-0.054-0.62-0.162-0.768c-0.108-0.148-0.226-0.242-0.354-0.282c-0.04-0.012-0.078-0.021-0.114-0.027
		c-0.036-0.006-0.07-0.009-0.102-0.009c-0.216,0.008-0.374,0.075-0.474,0.201c-0.1,0.126-0.168,0.265-0.204,0.417
		c-0.02,0.088-0.033,0.173-0.039,0.255s-0.009,0.153-0.009,0.213c0,0.36,0.053,0.616,0.159,0.768
		c0.106,0.152,0.223,0.248,0.351,0.288c0.036,0.012,0.072,0.021,0.108,0.027c0.036,0.006,0.072,0.009,0.108,0.009
		C88.397,8.508,88.432,8.506,88.467,8.502z"/>
	<path fill="#034EA2" d="M90.855,8.388c0.188-0.292,0.319-0.602,0.393-0.93c0.074-0.328,0.111-0.68,0.111-1.056v-0.6h0.06h2.766
		v2.586h0.534l-0.054,1.488h-0.06h-0.822v-0.84h-2.418v0.84h-0.06h-0.822L90.43,8.388H90.855z M92.308,6.45l-0.006,0.342
		c-0.004,0.136-0.017,0.31-0.039,0.522c-0.022,0.212-0.073,0.43-0.153,0.654c-0.024,0.072-0.052,0.143-0.084,0.213
		c-0.032,0.07-0.068,0.139-0.108,0.207h1.242V6.45H92.308z"/>
	<path fill="#034EA2" d="M96.819,7.686l-0.882,1.35h-0.06h-1.122l1.308-1.698l-1.224-1.536h0.06h1.062l0.858,1.26v-1.26h0.06h0.924
		v1.26l0.858-1.26h0.06h1.063L98.56,7.338l1.314,1.698h-0.061h-1.122l-0.888-1.35v1.35h-0.06h-0.924V7.686z"/>
	<path fill="#034EA2" d="M103.545,8.1c-0.013,0.052-0.028,0.105-0.048,0.159c-0.021,0.054-0.047,0.109-0.078,0.165
		c-0.101,0.18-0.269,0.344-0.504,0.492c-0.236,0.148-0.584,0.222-1.044,0.222l-0.061,0.006c-0.063-0.004-0.175-0.014-0.333-0.03
		c-0.158-0.016-0.327-0.062-0.507-0.138c-0.225-0.096-0.428-0.263-0.612-0.501c-0.184-0.238-0.275-0.591-0.275-1.059
		c0-0.512,0.157-0.926,0.474-1.242s0.758-0.474,1.326-0.474h0.06c0.561,0,0.979,0.164,1.254,0.492
		c0.276,0.328,0.414,0.756,0.414,1.284V7.62h-2.472c0,0.036,0.001,0.072,0.003,0.108s0.007,0.072,0.015,0.108
		c0.028,0.168,0.099,0.324,0.21,0.468c0.112,0.144,0.284,0.22,0.517,0.228c0.151-0.008,0.287-0.048,0.405-0.12
		c0.117-0.072,0.19-0.176,0.219-0.312h0.06H103.545z M102.555,7.116c-0.004-0.208-0.052-0.392-0.145-0.552
		c-0.092-0.16-0.262-0.244-0.51-0.252c-0.2,0.008-0.353,0.062-0.459,0.162c-0.105,0.1-0.183,0.208-0.23,0.324
		c-0.021,0.06-0.036,0.117-0.048,0.171c-0.013,0.054-0.021,0.103-0.024,0.147H102.555z"/>
	<path fill="#034EA2" d="M103.965,6.45V5.802h0.06h3.103V6.45h-1.068v2.586H106h-0.966V6.45H103.965z"/>
	<path fill="#034EA2" d="M108.664,9.036h-0.06h-0.967V5.802h0.061h0.966V7.02h1.104V5.802h0.061h0.966v3.234h-0.06h-0.967V7.668
		h-1.104V9.036z"/>
	<path fill="#034EA2" d="M112.915,9.132c-0.106-0.012-0.213-0.034-0.321-0.066c-0.284-0.076-0.545-0.238-0.783-0.486
		s-0.356-0.636-0.356-1.164c0-0.528,0.118-0.915,0.356-1.161c0.238-0.246,0.501-0.411,0.789-0.495
		c0.108-0.028,0.214-0.048,0.318-0.06c0.104-0.012,0.202-0.018,0.294-0.018h0.06c0.092,0,0.19,0.006,0.294,0.018
		c0.104,0.012,0.208,0.032,0.313,0.06c0.292,0.08,0.558,0.244,0.798,0.492c0.24,0.248,0.36,0.636,0.36,1.164
		c0,0.532-0.12,0.922-0.36,1.17c-0.24,0.248-0.506,0.41-0.798,0.486c-0.104,0.028-0.208,0.048-0.313,0.06
		c-0.104,0.012-0.202,0.018-0.294,0.018l-0.06,0.006C113.12,9.152,113.02,9.144,112.915,9.132z M113.724,8.31
		c0.103-0.128,0.169-0.268,0.201-0.42c0.02-0.088,0.033-0.174,0.039-0.258s0.009-0.156,0.009-0.216s-0.003-0.132-0.009-0.216
		s-0.02-0.17-0.039-0.258c-0.036-0.147-0.104-0.286-0.204-0.414s-0.26-0.194-0.479-0.198c-0.221,0.008-0.381,0.075-0.48,0.201
		s-0.166,0.265-0.198,0.417c-0.023,0.088-0.038,0.173-0.042,0.255s-0.006,0.153-0.006,0.213c0,0.364,0.053,0.621,0.159,0.771
		c0.105,0.15,0.223,0.245,0.351,0.285c0.036,0.012,0.072,0.021,0.108,0.027c0.036,0.006,0.072,0.009,0.108,0.009
		C113.461,8.504,113.623,8.438,113.724,8.31z"/>
	<path fill="#034EA2" d="M119.001,8.1c-0.013,0.052-0.028,0.105-0.048,0.159c-0.021,0.054-0.047,0.109-0.078,0.165
		c-0.101,0.18-0.269,0.344-0.504,0.492c-0.236,0.148-0.584,0.222-1.044,0.222l-0.061,0.006c-0.063-0.004-0.175-0.014-0.333-0.03
		c-0.158-0.016-0.327-0.062-0.507-0.138c-0.225-0.096-0.428-0.263-0.612-0.501c-0.184-0.238-0.275-0.591-0.275-1.059
		c0-0.512,0.157-0.926,0.474-1.242s0.758-0.474,1.326-0.474h0.06c0.561,0,0.979,0.164,1.254,0.492
		c0.276,0.328,0.414,0.756,0.414,1.284V7.62h-2.472c0,0.036,0.001,0.072,0.003,0.108s0.007,0.072,0.015,0.108
		c0.028,0.168,0.099,0.324,0.21,0.468c0.112,0.144,0.284,0.22,0.517,0.228c0.151-0.008,0.287-0.048,0.405-0.12
		c0.117-0.072,0.19-0.176,0.219-0.312h0.06H119.001z M118.011,7.116c-0.004-0.208-0.052-0.392-0.145-0.552
		c-0.092-0.16-0.262-0.244-0.51-0.252c-0.2,0.008-0.353,0.062-0.459,0.162c-0.105,0.1-0.183,0.208-0.23,0.324
		c-0.021,0.06-0.036,0.117-0.048,0.171c-0.013,0.054-0.021,0.103-0.024,0.147H118.011z"/>
	<path fill="#034EA2" d="M122.955,9.036h-0.06h-0.967V5.802h0.061h3.174v3.234h-0.06h-0.967V6.45h-1.182V9.036z"/>
	<path fill="#034EA2" d="M126.946,5.802l-0.007,0.342c0.036-0.04,0.073-0.077,0.111-0.111s0.075-0.063,0.111-0.087
		c0.14-0.104,0.276-0.172,0.411-0.204c0.134-0.032,0.257-0.048,0.368-0.048h0.061c0.492,0,0.859,0.17,1.104,0.51
		s0.366,0.748,0.366,1.224c0,0.46-0.123,0.859-0.369,1.197c-0.246,0.338-0.619,0.507-1.119,0.507l-0.06,0.006
		c-0.176-0.004-0.345-0.038-0.507-0.102s-0.299-0.152-0.411-0.264v1.44h-0.06h-0.967v-4.41h0.061H126.946z M127.134,8.148
		c0.118,0.196,0.301,0.298,0.549,0.306c0.248-0.008,0.432-0.11,0.549-0.306c0.118-0.196,0.178-0.44,0.178-0.732
		c0-0.34-0.068-0.596-0.204-0.768c-0.137-0.172-0.311-0.262-0.522-0.27c-0.208,0.008-0.381,0.098-0.519,0.27
		c-0.139,0.172-0.207,0.428-0.207,0.768C126.958,7.708,127.016,7.952,127.134,8.148z"/>
	<path fill="#034EA2" d="M131.436,9.132c-0.106-0.012-0.213-0.034-0.321-0.066c-0.284-0.076-0.545-0.238-0.783-0.486
		s-0.356-0.636-0.356-1.164c0-0.528,0.118-0.915,0.356-1.161c0.238-0.246,0.501-0.411,0.789-0.495
		c0.108-0.028,0.214-0.048,0.318-0.06c0.104-0.012,0.202-0.018,0.294-0.018h0.06c0.092,0,0.19,0.006,0.294,0.018
		c0.104,0.012,0.208,0.032,0.313,0.06c0.292,0.08,0.558,0.244,0.798,0.492c0.24,0.248,0.36,0.636,0.36,1.164
		c0,0.532-0.12,0.922-0.36,1.17c-0.24,0.248-0.506,0.41-0.798,0.486c-0.104,0.028-0.208,0.048-0.313,0.06
		c-0.104,0.012-0.202,0.018-0.294,0.018l-0.06,0.006C131.641,9.152,131.542,9.144,131.436,9.132z M132.246,8.31
		c0.103-0.128,0.169-0.268,0.201-0.42c0.02-0.088,0.033-0.174,0.039-0.258s0.009-0.156,0.009-0.216s-0.003-0.132-0.009-0.216
		s-0.02-0.17-0.039-0.258c-0.036-0.147-0.104-0.286-0.204-0.414s-0.26-0.194-0.479-0.198c-0.221,0.008-0.381,0.075-0.48,0.201
		s-0.166,0.265-0.198,0.417c-0.023,0.088-0.038,0.173-0.042,0.255s-0.006,0.153-0.006,0.213c0,0.364,0.053,0.621,0.159,0.771
		c0.105,0.15,0.223,0.245,0.351,0.285c0.036,0.012,0.072,0.021,0.108,0.027c0.036,0.006,0.072,0.009,0.108,0.009
		C131.983,8.504,132.144,8.438,132.246,8.31z"/>
	<path fill="#034EA2" d="M136.046,9.126c-0.092-0.004-0.187-0.011-0.285-0.021c-0.098-0.01-0.196-0.025-0.297-0.045
		c-0.352-0.064-0.674-0.216-0.966-0.456c-0.292-0.24-0.438-0.642-0.438-1.206c0-0.548,0.146-0.941,0.438-1.179
		c0.292-0.238,0.614-0.387,0.966-0.447c0.101-0.016,0.199-0.027,0.297-0.033c0.099-0.006,0.193-0.009,0.285-0.009V4.584h0.061h0.966
		V5.73c0.112,0,0.236,0.006,0.372,0.018c0.136,0.012,0.273,0.036,0.414,0.072c0.3,0.08,0.575,0.237,0.825,0.471
		s0.375,0.605,0.375,1.113c0,0.088-0.006,0.18-0.016,0.276s-0.031,0.194-0.063,0.294c-0.08,0.284-0.26,0.543-0.537,0.777
		c-0.278,0.234-0.735,0.357-1.371,0.369v1.092h-0.061h-0.966V9.126z M136.119,6.378h-0.108c-0.231,0-0.443,0.078-0.636,0.234
		c-0.191,0.156-0.288,0.408-0.288,0.756c0,0.324,0.065,0.564,0.195,0.72c0.13,0.156,0.271,0.262,0.423,0.318
		c0.076,0.028,0.15,0.047,0.222,0.057c0.072,0.01,0.137,0.015,0.192,0.015V6.378z M137,8.478c0.036,0,0.071-0.002,0.105-0.006
		c0.033-0.004,0.068-0.008,0.104-0.012c0.204-0.036,0.393-0.135,0.564-0.297s0.258-0.425,0.258-0.789
		c0-0.36-0.092-0.609-0.276-0.747c-0.184-0.138-0.388-0.219-0.611-0.243c-0.024,0-0.049-0.001-0.072-0.003
		c-0.024-0.002-0.048-0.003-0.072-0.003V8.478z"/>
	<path fill="#034EA2" d="M143.025,8.1c-0.013,0.052-0.028,0.105-0.048,0.159c-0.021,0.054-0.047,0.109-0.078,0.165
		c-0.101,0.18-0.269,0.344-0.504,0.492c-0.236,0.148-0.584,0.222-1.044,0.222l-0.061,0.006c-0.063-0.004-0.175-0.014-0.333-0.03
		c-0.158-0.016-0.327-0.062-0.507-0.138c-0.225-0.096-0.428-0.263-0.612-0.501c-0.184-0.238-0.275-0.591-0.275-1.059
		c0-0.512,0.157-0.926,0.474-1.242s0.758-0.474,1.326-0.474h0.06c0.561,0,0.979,0.164,1.254,0.492
		c0.276,0.328,0.414,0.756,0.414,1.284V7.62h-2.472c0,0.036,0.001,0.072,0.003,0.108s0.007,0.072,0.015,0.108
		c0.028,0.168,0.099,0.324,0.21,0.468c0.112,0.144,0.284,0.22,0.517,0.228c0.151-0.008,0.287-0.048,0.405-0.12
		c0.117-0.072,0.19-0.176,0.219-0.312h0.06H143.025z M142.035,7.116c-0.004-0.208-0.052-0.392-0.145-0.552
		c-0.092-0.16-0.262-0.244-0.51-0.252c-0.2,0.008-0.353,0.062-0.459,0.162c-0.105,0.1-0.183,0.208-0.23,0.324
		c-0.021,0.06-0.036,0.117-0.048,0.171c-0.013,0.054-0.021,0.103-0.024,0.147H142.035z"/>
	<path fill="#034EA2" d="M146.973,7.818c-0.044,0.352-0.149,0.62-0.315,0.804s-0.343,0.314-0.531,0.39
		c-0.147,0.06-0.292,0.097-0.432,0.111s-0.248,0.021-0.324,0.021l-0.06,0.006c-0.568-0.004-0.996-0.164-1.284-0.48
		c-0.288-0.316-0.432-0.729-0.432-1.242c0-0.092,0.006-0.19,0.018-0.294s0.032-0.208,0.06-0.312c0.08-0.288,0.246-0.55,0.498-0.786
		s0.652-0.354,1.2-0.354h0.061c0.428,0,0.749,0.088,0.963,0.264c0.214,0.176,0.36,0.368,0.44,0.576
		c0.032,0.076,0.056,0.151,0.069,0.225c0.014,0.074,0.025,0.143,0.033,0.207h-0.061h-0.93c-0.024-0.208-0.079-0.356-0.165-0.444
		s-0.179-0.142-0.279-0.162c-0.023-0.008-0.047-0.013-0.068-0.015c-0.022-0.002-0.045-0.003-0.069-0.003
		c-0.032,0-0.065,0.003-0.099,0.009c-0.034,0.006-0.067,0.013-0.1,0.021c-0.128,0.036-0.245,0.125-0.351,0.267
		c-0.106,0.142-0.159,0.385-0.159,0.729c0,0.356,0.049,0.615,0.147,0.777c0.098,0.162,0.204,0.267,0.32,0.315
		c0.04,0.02,0.079,0.034,0.117,0.042c0.038,0.008,0.075,0.012,0.111,0.012c0.147-0.004,0.263-0.044,0.345-0.12
		c0.082-0.076,0.143-0.158,0.183-0.246c0.028-0.064,0.048-0.125,0.058-0.183s0.017-0.103,0.021-0.135h0.061H146.973z"/>
	<path fill="#034EA2" d="M150.836,7.818c-0.044,0.352-0.149,0.62-0.315,0.804s-0.343,0.314-0.531,0.39
		c-0.147,0.06-0.292,0.097-0.432,0.111s-0.248,0.021-0.324,0.021l-0.06,0.006c-0.568-0.004-0.996-0.164-1.284-0.48
		c-0.288-0.316-0.432-0.729-0.432-1.242c0-0.092,0.006-0.19,0.018-0.294s0.032-0.208,0.06-0.312c0.08-0.288,0.246-0.55,0.498-0.786
		s0.652-0.354,1.2-0.354h0.061c0.428,0,0.749,0.088,0.963,0.264c0.214,0.176,0.36,0.368,0.44,0.576
		c0.032,0.076,0.056,0.151,0.069,0.225c0.014,0.074,0.025,0.143,0.033,0.207h-0.061h-0.93c-0.024-0.208-0.079-0.356-0.165-0.444
		s-0.179-0.142-0.279-0.162c-0.023-0.008-0.047-0.013-0.068-0.015c-0.022-0.002-0.045-0.003-0.069-0.003
		c-0.032,0-0.065,0.003-0.099,0.009c-0.034,0.006-0.067,0.013-0.1,0.021c-0.128,0.036-0.245,0.125-0.351,0.267
		c-0.106,0.142-0.159,0.385-0.159,0.729c0,0.356,0.049,0.615,0.147,0.777c0.098,0.162,0.204,0.267,0.32,0.315
		c0.04,0.02,0.079,0.034,0.117,0.042c0.038,0.008,0.075,0.012,0.111,0.012c0.147-0.004,0.263-0.044,0.345-0.12
		c0.082-0.076,0.143-0.158,0.183-0.246c0.028-0.064,0.048-0.125,0.058-0.183s0.017-0.103,0.021-0.135h0.061H150.836z"/>
	<path fill="#034EA2" d="M153.764,5.802h0.061h1.025v3.234h-0.06h-0.966V7.032l-1.261,2.004h-0.06h-1.026V5.802h0.061h0.966v2.004
		L153.764,5.802z"/>
	<path fill="#034EA2" d="M156.972,9.132c-0.106-0.012-0.213-0.034-0.321-0.066c-0.284-0.076-0.545-0.238-0.783-0.486
		s-0.356-0.636-0.356-1.164c0-0.528,0.118-0.915,0.356-1.161c0.238-0.246,0.501-0.411,0.789-0.495
		c0.108-0.028,0.214-0.048,0.318-0.06c0.104-0.012,0.202-0.018,0.294-0.018h0.06c0.092,0,0.19,0.006,0.294,0.018
		c0.104,0.012,0.208,0.032,0.313,0.06c0.292,0.08,0.558,0.244,0.798,0.492c0.24,0.248,0.36,0.636,0.36,1.164
		c0,0.532-0.12,0.922-0.36,1.17c-0.24,0.248-0.506,0.41-0.798,0.486c-0.104,0.028-0.208,0.048-0.313,0.06
		c-0.104,0.012-0.202,0.018-0.294,0.018l-0.06,0.006C157.177,9.152,157.078,9.144,156.972,9.132z M157.782,8.31
		c0.103-0.128,0.169-0.268,0.201-0.42c0.02-0.088,0.033-0.174,0.039-0.258s0.009-0.156,0.009-0.216s-0.003-0.132-0.009-0.216
		s-0.02-0.17-0.039-0.258c-0.036-0.147-0.104-0.286-0.204-0.414s-0.26-0.194-0.479-0.198c-0.221,0.008-0.381,0.075-0.48,0.201
		s-0.166,0.265-0.198,0.417c-0.023,0.088-0.038,0.173-0.042,0.255s-0.006,0.153-0.006,0.213c0,0.364,0.053,0.621,0.159,0.771
		c0.105,0.15,0.223,0.245,0.351,0.285c0.036,0.012,0.072,0.021,0.108,0.027c0.036,0.006,0.072,0.009,0.108,0.009
		C157.519,8.504,157.68,8.438,157.782,8.31z"/>
	<path fill="#034EA2" d="M160.779,9.036h-0.06h-0.967V5.802h0.061h0.966V7.02h1.104V5.802h0.061h0.966v3.234h-0.06h-0.967V7.668
		h-1.104V9.036z"/>
	<path fill="#034EA2" d="M163.785,6.846c0-0.028,0.002-0.056,0.006-0.084s0.008-0.058,0.012-0.09
		c0.04-0.236,0.168-0.454,0.384-0.654c0.217-0.2,0.591-0.3,1.122-0.3h0.061c0.439,0,0.762,0.065,0.966,0.195s0.34,0.273,0.408,0.429
		c0.048,0.104,0.076,0.204,0.084,0.3s0.012,0.174,0.012,0.234c0,0.004,0,0.007,0,0.009s0,0.005,0,0.009l-0.012,1.476
		c0,0.012,0,0.023,0,0.033c0,0.01,0,0.017,0,0.021s0,0.008,0,0.012s0.002,0.008,0.006,0.012c0,0.012,0,0.028,0,0.048
		s0,0.052,0,0.096c0,0.024,0.001,0.049,0.003,0.075c0.002,0.026,0.005,0.053,0.009,0.081c0.008,0.052,0.025,0.102,0.051,0.15
		c0.026,0.048,0.067,0.086,0.123,0.114v0.024h-0.06h-1.014l-0.078-0.282c-0.061,0.064-0.126,0.119-0.198,0.165
		c-0.072,0.046-0.146,0.083-0.222,0.111c-0.141,0.048-0.271,0.077-0.394,0.087c-0.122,0.01-0.201,0.015-0.236,0.015l-0.061,0.006
		c-0.312-0.004-0.545-0.055-0.699-0.153c-0.153-0.098-0.263-0.209-0.326-0.333c-0.045-0.088-0.071-0.172-0.081-0.252
		c-0.011-0.08-0.016-0.14-0.016-0.18c0-0.396,0.139-0.655,0.417-0.777s0.585-0.205,0.921-0.249c0.013,0,0.023-0.001,0.033-0.003
		c0.01-0.002,0.021-0.003,0.033-0.003c0.072-0.008,0.138-0.016,0.198-0.024c0.06-0.008,0.113-0.014,0.162-0.018
		c0.168-0.028,0.278-0.06,0.333-0.096c0.054-0.036,0.082-0.104,0.087-0.204c0-0.008,0-0.015,0-0.021s0-0.013,0-0.021
		s0-0.015,0-0.021s0-0.013,0-0.021c0-0.024-0.003-0.052-0.01-0.084c-0.006-0.032-0.015-0.066-0.026-0.102
		c-0.024-0.06-0.07-0.115-0.139-0.165c-0.067-0.05-0.172-0.077-0.312-0.081c-0.176,0.004-0.304,0.041-0.384,0.111
		c-0.08,0.07-0.132,0.147-0.156,0.231c-0.008,0.028-0.014,0.057-0.018,0.087c-0.005,0.03-0.007,0.059-0.007,0.087h-0.06H163.785z
		 M165.831,7.524c-0.028,0.012-0.055,0.024-0.081,0.036c-0.026,0.012-0.053,0.02-0.081,0.024c-0.036,0.012-0.072,0.022-0.108,0.03
		c-0.035,0.008-0.073,0.016-0.113,0.024c-0.017,0-0.032,0.001-0.048,0.003c-0.017,0.002-0.032,0.005-0.049,0.009
		c-0.016,0.004-0.032,0.007-0.051,0.009c-0.018,0.002-0.035,0.005-0.051,0.009c-0.14,0.028-0.27,0.071-0.387,0.129
		c-0.118,0.058-0.178,0.171-0.178,0.339c0,0.1,0.037,0.191,0.111,0.273s0.191,0.127,0.351,0.135c0.032,0,0.066-0.004,0.103-0.012
		c0.036-0.008,0.072-0.018,0.108-0.03c0.115-0.04,0.221-0.121,0.314-0.243s0.146-0.309,0.153-0.561L165.831,7.524z"/>
	<path fill="#034EA2" d="M167.36,9.048V8.382h0.06c0.021,0.004,0.041,0.007,0.063,0.009c0.021,0.002,0.041,0.003,0.057,0.003
		c0.252-0.008,0.406-0.127,0.462-0.357c0.057-0.23,0.088-0.513,0.097-0.849l0.029-1.386h0.061h2.754v3.234h-0.06h-0.967V6.45h-0.804
		L169.1,7.176c0,0.052-0.001,0.105-0.003,0.159c-0.002,0.054-0.005,0.107-0.01,0.159c-0.02,0.404-0.103,0.772-0.248,1.104
		c-0.146,0.332-0.464,0.498-0.951,0.498l-0.061,0.006c-0.067-0.004-0.141-0.01-0.219-0.018c-0.078-0.008-0.161-0.022-0.249-0.042
		V9.048z"/>
	<path fill="#034EA2" d="M172.784,5.802v1.182h0.612c0.075,0,0.165,0.003,0.267,0.009c0.103,0.006,0.207,0.021,0.315,0.045
		c0.199,0.044,0.384,0.139,0.552,0.285s0.252,0.387,0.252,0.723c0,0.304-0.071,0.524-0.213,0.66
		c-0.143,0.136-0.297,0.228-0.465,0.276c-0.093,0.024-0.182,0.039-0.268,0.045c-0.086,0.006-0.161,0.009-0.225,0.009h-0.061h-1.794
		V5.802h0.061H172.784z M172.784,8.424h0.378c0.028,0,0.056-0.001,0.084-0.003c0.028-0.002,0.056-0.003,0.084-0.003
		c0.1-0.016,0.191-0.051,0.273-0.105c0.082-0.054,0.123-0.155,0.123-0.303c0-0.132-0.047-0.234-0.139-0.306
		c-0.092-0.072-0.242-0.108-0.45-0.108h-0.354V8.424z"/>
	<path fill="#034EA2" d="M176.402,9.036h-0.06h-0.967V5.802h0.061h0.966V7.02h1.104V5.802h0.061h0.966v3.234h-0.06h-0.967V7.668
		h-1.104V9.036z"/>
	<path fill="#034EA2" d="M180.653,9.132c-0.106-0.012-0.213-0.034-0.321-0.066c-0.284-0.076-0.545-0.238-0.783-0.486
		s-0.356-0.636-0.356-1.164c0-0.528,0.118-0.915,0.356-1.161c0.238-0.246,0.501-0.411,0.789-0.495
		c0.108-0.028,0.214-0.048,0.318-0.06c0.104-0.012,0.202-0.018,0.294-0.018h0.06c0.092,0,0.19,0.006,0.294,0.018
		c0.104,0.012,0.208,0.032,0.313,0.06c0.292,0.08,0.558,0.244,0.798,0.492c0.24,0.248,0.36,0.636,0.36,1.164
		c0,0.532-0.12,0.922-0.36,1.17c-0.24,0.248-0.506,0.41-0.798,0.486c-0.104,0.028-0.208,0.048-0.313,0.06
		c-0.104,0.012-0.202,0.018-0.294,0.018l-0.06,0.006C180.858,9.152,180.758,9.144,180.653,9.132z M181.462,8.31
		c0.103-0.128,0.169-0.268,0.201-0.42c0.02-0.088,0.033-0.174,0.039-0.258s0.009-0.156,0.009-0.216s-0.003-0.132-0.009-0.216
		s-0.02-0.17-0.039-0.258c-0.036-0.147-0.104-0.286-0.204-0.414s-0.26-0.194-0.479-0.198c-0.221,0.008-0.381,0.075-0.48,0.201
		s-0.166,0.265-0.198,0.417c-0.023,0.088-0.038,0.173-0.042,0.255s-0.006,0.153-0.006,0.213c0,0.364,0.053,0.621,0.159,0.771
		c0.105,0.15,0.223,0.245,0.351,0.285c0.036,0.012,0.072,0.021,0.108,0.027c0.036,0.006,0.072,0.009,0.108,0.009
		C181.2,8.504,181.361,8.438,181.462,8.31z"/>
	<path fill="#034EA2" d="M186.74,8.1c-0.013,0.052-0.028,0.105-0.048,0.159c-0.021,0.054-0.047,0.109-0.078,0.165
		c-0.101,0.18-0.269,0.344-0.504,0.492c-0.236,0.148-0.584,0.222-1.044,0.222l-0.061,0.006c-0.063-0.004-0.175-0.014-0.333-0.03
		c-0.158-0.016-0.327-0.062-0.507-0.138c-0.225-0.096-0.428-0.263-0.612-0.501c-0.184-0.238-0.275-0.591-0.275-1.059
		c0-0.512,0.157-0.926,0.474-1.242s0.758-0.474,1.326-0.474h0.06c0.561,0,0.979,0.164,1.254,0.492
		c0.276,0.328,0.414,0.756,0.414,1.284V7.62h-2.472c0,0.036,0.001,0.072,0.003,0.108s0.007,0.072,0.015,0.108
		c0.028,0.168,0.099,0.324,0.21,0.468c0.112,0.144,0.284,0.22,0.517,0.228c0.151-0.008,0.287-0.048,0.405-0.12
		c0.117-0.072,0.19-0.176,0.219-0.312h0.06H186.74z M185.75,7.116c-0.004-0.208-0.052-0.392-0.145-0.552
		c-0.092-0.16-0.262-0.244-0.51-0.252c-0.2,0.008-0.353,0.062-0.459,0.162c-0.105,0.1-0.183,0.208-0.23,0.324
		c-0.021,0.06-0.036,0.117-0.048,0.171c-0.013,0.054-0.021,0.103-0.024,0.147H185.75z"/>
	<path fill="#034EA2" d="M190.973,9.132c-0.106-0.012-0.213-0.034-0.321-0.066c-0.284-0.076-0.545-0.238-0.783-0.486
		s-0.356-0.636-0.356-1.164c0-0.528,0.118-0.915,0.356-1.161c0.238-0.246,0.501-0.411,0.789-0.495
		c0.108-0.028,0.214-0.048,0.318-0.06c0.104-0.012,0.202-0.018,0.294-0.018h0.06c0.092,0,0.19,0.006,0.294,0.018
		c0.104,0.012,0.208,0.032,0.313,0.06c0.292,0.08,0.558,0.244,0.798,0.492c0.24,0.248,0.36,0.636,0.36,1.164
		c0,0.532-0.12,0.922-0.36,1.17c-0.24,0.248-0.506,0.41-0.798,0.486c-0.104,0.028-0.208,0.048-0.313,0.06
		c-0.104,0.012-0.202,0.018-0.294,0.018l-0.06,0.006C191.178,9.152,191.079,9.144,190.973,9.132z M191.783,8.31
		c0.103-0.128,0.169-0.268,0.201-0.42c0.02-0.088,0.033-0.174,0.039-0.258s0.009-0.156,0.009-0.216s-0.003-0.132-0.009-0.216
		s-0.02-0.17-0.039-0.258c-0.036-0.147-0.104-0.286-0.204-0.414s-0.26-0.194-0.479-0.198c-0.221,0.008-0.381,0.075-0.48,0.201
		s-0.166,0.265-0.198,0.417c-0.023,0.088-0.038,0.173-0.042,0.255s-0.006,0.153-0.006,0.213c0,0.364,0.053,0.621,0.159,0.771
		c0.105,0.15,0.223,0.245,0.351,0.285c0.036,0.012,0.072,0.021,0.108,0.027c0.036,0.006,0.072,0.009,0.108,0.009
		C191.52,8.504,191.681,8.438,191.783,8.31z"/>
	<path fill="#034EA2" d="M197.06,4.284c-0.017,0.372-0.15,0.612-0.402,0.72c-0.252,0.108-0.526,0.18-0.822,0.216
		c-0.004,0-0.007,0-0.009,0s-0.005,0-0.009,0c-0.364,0.044-0.697,0.132-0.999,0.264c-0.302,0.132-0.481,0.482-0.537,1.05
		c0.108-0.228,0.271-0.397,0.486-0.507c0.216-0.11,0.443-0.175,0.684-0.195c0.032,0,0.063-0.001,0.093-0.003
		c0.03-0.002,0.06-0.003,0.087-0.003h0.061c0.508,0,0.896,0.153,1.167,0.459c0.27,0.306,0.405,0.685,0.405,1.137
		c0,0.496-0.145,0.905-0.433,1.227c-0.288,0.322-0.71,0.483-1.266,0.483l-0.061,0.006c-0.096-0.004-0.199-0.012-0.312-0.024
		c-0.112-0.012-0.227-0.038-0.342-0.078c-0.292-0.088-0.561-0.293-0.805-0.615c-0.243-0.322-0.365-0.853-0.365-1.593
		c0-0.868,0.162-1.458,0.485-1.77c0.324-0.312,0.802-0.496,1.435-0.552c0.031-0.004,0.063-0.007,0.093-0.009
		s0.059-0.005,0.087-0.009c0.136-0.012,0.235-0.03,0.297-0.054c0.063-0.024,0.107-0.074,0.135-0.15h0.061H197.06z M194.987,8.262
		c0.146,0.144,0.313,0.22,0.501,0.228c0.184-0.008,0.349-0.084,0.495-0.228c0.146-0.144,0.219-0.404,0.219-0.78
		c0-0.304-0.049-0.527-0.146-0.669c-0.099-0.142-0.205-0.237-0.321-0.285c-0.044-0.02-0.087-0.034-0.129-0.042
		c-0.042-0.008-0.081-0.012-0.117-0.012s-0.084,0.006-0.144,0.018c-0.061,0.012-0.12,0.036-0.181,0.072
		c-0.1,0.056-0.19,0.153-0.272,0.291c-0.082,0.138-0.123,0.347-0.123,0.627C194.768,7.858,194.84,8.118,194.987,8.262z"/>
	<path fill="#034EA2" d="M198.89,5.802l-0.007,0.342c0.036-0.04,0.073-0.077,0.111-0.111s0.075-0.063,0.111-0.087
		c0.14-0.104,0.276-0.172,0.411-0.204c0.134-0.032,0.257-0.048,0.368-0.048h0.061c0.492,0,0.859,0.17,1.104,0.51
		s0.366,0.748,0.366,1.224c0,0.46-0.123,0.859-0.369,1.197c-0.246,0.338-0.619,0.507-1.119,0.507l-0.06,0.006
		c-0.176-0.004-0.345-0.038-0.507-0.102s-0.299-0.152-0.411-0.264v1.44h-0.06h-0.967v-4.41h0.061H198.89z M199.079,8.148
		c0.118,0.196,0.301,0.298,0.549,0.306c0.248-0.008,0.432-0.11,0.549-0.306c0.118-0.196,0.178-0.44,0.178-0.732
		c0-0.34-0.068-0.596-0.204-0.768c-0.137-0.172-0.311-0.262-0.522-0.27c-0.208,0.008-0.381,0.098-0.519,0.27
		c-0.139,0.172-0.207,0.428-0.207,0.768C198.902,7.708,198.96,7.952,199.079,8.148z"/>
	<path fill="#034EA2" d="M202.136,6.846c0-0.028,0.002-0.056,0.006-0.084s0.008-0.058,0.012-0.09
		c0.04-0.236,0.168-0.454,0.384-0.654c0.217-0.2,0.591-0.3,1.122-0.3h0.061c0.439,0,0.762,0.065,0.966,0.195s0.34,0.273,0.408,0.429
		c0.048,0.104,0.076,0.204,0.084,0.3s0.012,0.174,0.012,0.234c0,0.004,0,0.007,0,0.009s0,0.005,0,0.009l-0.012,1.476
		c0,0.012,0,0.023,0,0.033c0,0.01,0,0.017,0,0.021s0,0.008,0,0.012s0.002,0.008,0.006,0.012c0,0.012,0,0.028,0,0.048
		s0,0.052,0,0.096c0,0.024,0.001,0.049,0.003,0.075c0.002,0.026,0.005,0.053,0.009,0.081c0.008,0.052,0.025,0.102,0.051,0.15
		c0.026,0.048,0.067,0.086,0.123,0.114v0.024h-0.06h-1.014l-0.078-0.282c-0.061,0.064-0.126,0.119-0.198,0.165
		c-0.072,0.046-0.146,0.083-0.222,0.111c-0.141,0.048-0.271,0.077-0.394,0.087c-0.122,0.01-0.201,0.015-0.236,0.015l-0.061,0.006
		c-0.312-0.004-0.545-0.055-0.699-0.153c-0.153-0.098-0.263-0.209-0.326-0.333c-0.045-0.088-0.071-0.172-0.081-0.252
		c-0.011-0.08-0.016-0.14-0.016-0.18c0-0.396,0.139-0.655,0.417-0.777s0.585-0.205,0.921-0.249c0.013,0,0.023-0.001,0.033-0.003
		c0.01-0.002,0.021-0.003,0.033-0.003c0.072-0.008,0.138-0.016,0.198-0.024c0.06-0.008,0.113-0.014,0.162-0.018
		c0.168-0.028,0.278-0.06,0.333-0.096c0.054-0.036,0.082-0.104,0.087-0.204c0-0.008,0-0.015,0-0.021s0-0.013,0-0.021
		s0-0.015,0-0.021s0-0.013,0-0.021c0-0.024-0.003-0.052-0.01-0.084c-0.006-0.032-0.015-0.066-0.026-0.102
		c-0.024-0.06-0.07-0.115-0.139-0.165c-0.067-0.05-0.172-0.077-0.312-0.081c-0.176,0.004-0.304,0.041-0.384,0.111
		c-0.08,0.07-0.132,0.147-0.156,0.231c-0.008,0.028-0.014,0.057-0.018,0.087c-0.005,0.03-0.007,0.059-0.007,0.087h-0.06H202.136z
		 M204.182,7.524c-0.028,0.012-0.055,0.024-0.081,0.036c-0.026,0.012-0.053,0.02-0.081,0.024c-0.036,0.012-0.072,0.022-0.108,0.03
		c-0.035,0.008-0.073,0.016-0.113,0.024c-0.017,0-0.032,0.001-0.048,0.003c-0.017,0.002-0.032,0.005-0.049,0.009
		c-0.016,0.004-0.032,0.007-0.051,0.009c-0.018,0.002-0.035,0.005-0.051,0.009c-0.14,0.028-0.27,0.071-0.387,0.129
		c-0.118,0.058-0.178,0.171-0.178,0.339c0,0.1,0.037,0.191,0.111,0.273s0.191,0.127,0.351,0.135c0.032,0,0.066-0.004,0.103-0.012
		c0.036-0.008,0.072-0.018,0.108-0.03c0.115-0.04,0.221-0.121,0.314-0.243s0.146-0.309,0.153-0.561L204.182,7.524z"/>
	<path fill="#034EA2" d="M206.744,7.956c0,0.032,0.004,0.067,0.012,0.105s0.019,0.075,0.03,0.111
		c0.036,0.088,0.098,0.17,0.186,0.246c0.088,0.076,0.227,0.116,0.414,0.12c0.017,0,0.031,0,0.045,0c0.015,0,0.029-0.002,0.045-0.006
		c0.141-0.012,0.269-0.052,0.385-0.12c0.115-0.068,0.174-0.176,0.174-0.324c0-0.156-0.056-0.265-0.165-0.327
		c-0.11-0.062-0.251-0.093-0.423-0.093h-0.372V7.08h0.396c0.024,0,0.057-0.001,0.097-0.003c0.039-0.002,0.081-0.009,0.126-0.021
		c0.063-0.02,0.121-0.054,0.174-0.102c0.052-0.048,0.078-0.124,0.078-0.228c0-0.112-0.032-0.197-0.097-0.255
		c-0.063-0.058-0.134-0.099-0.21-0.123c-0.052-0.016-0.102-0.026-0.149-0.03c-0.049-0.004-0.086-0.006-0.114-0.006
		c-0.156,0.004-0.272,0.037-0.348,0.099c-0.076,0.062-0.131,0.129-0.162,0.201c-0.017,0.044-0.027,0.086-0.033,0.126
		s-0.009,0.074-0.009,0.102h-0.061h-0.894c0.004-0.352,0.099-0.607,0.285-0.765c0.186-0.158,0.389-0.261,0.608-0.309
		c0.12-0.032,0.238-0.051,0.354-0.057c0.115-0.006,0.216-0.009,0.3-0.009h0.06c0.08,0,0.18,0.003,0.297,0.009
		c0.118,0.006,0.239,0.021,0.363,0.045c0.212,0.04,0.407,0.123,0.585,0.249s0.268,0.331,0.268,0.615
		c0,0.168-0.037,0.301-0.111,0.399s-0.157,0.171-0.249,0.219c-0.044,0.024-0.087,0.043-0.129,0.057
		c-0.042,0.014-0.079,0.025-0.111,0.033v0.018c0.04,0.004,0.084,0.013,0.132,0.027c0.049,0.014,0.099,0.033,0.15,0.057
		c0.104,0.052,0.199,0.133,0.285,0.243c0.086,0.11,0.129,0.267,0.129,0.471c0,0.408-0.163,0.677-0.489,0.807
		s-0.705,0.195-1.137,0.195l-0.061,0.006c-0.084-0.004-0.174-0.009-0.27-0.015c-0.096-0.006-0.192-0.019-0.288-0.039
		c-0.26-0.044-0.499-0.149-0.717-0.315s-0.337-0.441-0.357-0.825h0.061H206.744z"/>
	<path fill="#034EA2" d="M211.031,9.132c-0.106-0.012-0.213-0.034-0.321-0.066c-0.284-0.076-0.545-0.238-0.783-0.486
		s-0.356-0.636-0.356-1.164c0-0.528,0.118-0.915,0.356-1.161c0.238-0.246,0.501-0.411,0.789-0.495
		c0.108-0.028,0.214-0.048,0.318-0.06c0.104-0.012,0.202-0.018,0.294-0.018h0.06c0.092,0,0.19,0.006,0.294,0.018
		c0.104,0.012,0.208,0.032,0.313,0.06c0.292,0.08,0.558,0.244,0.798,0.492c0.24,0.248,0.36,0.636,0.36,1.164
		c0,0.532-0.12,0.922-0.36,1.17c-0.24,0.248-0.506,0.41-0.798,0.486c-0.104,0.028-0.208,0.048-0.313,0.06
		c-0.104,0.012-0.202,0.018-0.294,0.018l-0.06,0.006C211.236,9.152,211.136,9.144,211.031,9.132z M211.84,8.31
		c0.103-0.128,0.169-0.268,0.201-0.42c0.02-0.088,0.033-0.174,0.039-0.258s0.009-0.156,0.009-0.216s-0.003-0.132-0.009-0.216
		s-0.02-0.17-0.039-0.258c-0.036-0.147-0.104-0.286-0.204-0.414s-0.26-0.194-0.479-0.198c-0.221,0.008-0.381,0.075-0.48,0.201
		s-0.166,0.265-0.198,0.417c-0.023,0.088-0.038,0.173-0.042,0.255s-0.006,0.153-0.006,0.213c0,0.364,0.053,0.621,0.159,0.771
		c0.105,0.15,0.223,0.245,0.351,0.285c0.036,0.012,0.072,0.021,0.108,0.027c0.036,0.006,0.072,0.009,0.108,0.009
		C211.578,8.504,211.739,8.438,211.84,8.31z"/>
	<path fill="#034EA2" d="M215.797,5.802c0.376,0,0.643,0.069,0.801,0.207c0.158,0.138,0.237,0.331,0.237,0.579
		c0,0.212-0.055,0.377-0.165,0.495c-0.11,0.118-0.231,0.197-0.363,0.237c-0.02,0.004-0.038,0.008-0.054,0.012
		s-0.032,0.008-0.048,0.012v0.018c0.284,0.052,0.483,0.149,0.6,0.291c0.116,0.142,0.174,0.327,0.174,0.555
		c0,0.324-0.106,0.543-0.32,0.657c-0.214,0.114-0.503,0.171-0.867,0.171h-0.061h-1.92V5.802h0.061H215.797z M214.837,7.086h0.444
		c0.204,0,0.342-0.028,0.414-0.084c0.071-0.056,0.107-0.136,0.107-0.24c0-0.1-0.031-0.183-0.093-0.249
		c-0.063-0.066-0.199-0.099-0.411-0.099h-0.462V7.086z M214.837,8.424h0.546c0.148,0,0.275-0.024,0.381-0.072
		c0.106-0.048,0.159-0.146,0.159-0.294c0-0.152-0.053-0.254-0.159-0.306c-0.105-0.052-0.239-0.078-0.398-0.078h-0.528V8.424z"/>
	<path fill="#034EA2" d="M217.681,6.846c0-0.028,0.002-0.056,0.006-0.084s0.008-0.058,0.012-0.09
		c0.04-0.236,0.168-0.454,0.384-0.654c0.217-0.2,0.591-0.3,1.122-0.3h0.061c0.439,0,0.762,0.065,0.966,0.195s0.34,0.273,0.408,0.429
		c0.048,0.104,0.076,0.204,0.084,0.3s0.012,0.174,0.012,0.234c0,0.004,0,0.007,0,0.009s0,0.005,0,0.009l-0.012,1.476
		c0,0.012,0,0.023,0,0.033c0,0.01,0,0.017,0,0.021s0,0.008,0,0.012s0.002,0.008,0.006,0.012c0,0.012,0,0.028,0,0.048
		s0,0.052,0,0.096c0,0.024,0.001,0.049,0.003,0.075c0.002,0.026,0.005,0.053,0.009,0.081c0.008,0.052,0.025,0.102,0.051,0.15
		c0.026,0.048,0.067,0.086,0.123,0.114v0.024h-0.06h-1.014l-0.078-0.282c-0.061,0.064-0.126,0.119-0.198,0.165
		c-0.072,0.046-0.146,0.083-0.222,0.111c-0.141,0.048-0.271,0.077-0.394,0.087c-0.122,0.01-0.201,0.015-0.236,0.015l-0.061,0.006
		c-0.312-0.004-0.545-0.055-0.699-0.153c-0.153-0.098-0.263-0.209-0.326-0.333c-0.045-0.088-0.071-0.172-0.081-0.252
		c-0.011-0.08-0.016-0.14-0.016-0.18c0-0.396,0.139-0.655,0.417-0.777s0.585-0.205,0.921-0.249c0.013,0,0.023-0.001,0.033-0.003
		c0.01-0.002,0.021-0.003,0.033-0.003c0.072-0.008,0.138-0.016,0.198-0.024c0.06-0.008,0.113-0.014,0.162-0.018
		c0.168-0.028,0.278-0.06,0.333-0.096c0.054-0.036,0.082-0.104,0.087-0.204c0-0.008,0-0.015,0-0.021s0-0.013,0-0.021
		s0-0.015,0-0.021s0-0.013,0-0.021c0-0.024-0.003-0.052-0.01-0.084c-0.006-0.032-0.015-0.066-0.026-0.102
		c-0.024-0.06-0.07-0.115-0.139-0.165c-0.067-0.05-0.172-0.077-0.312-0.081c-0.176,0.004-0.304,0.041-0.384,0.111
		c-0.08,0.07-0.132,0.147-0.156,0.231c-0.008,0.028-0.014,0.057-0.018,0.087c-0.005,0.03-0.007,0.059-0.007,0.087h-0.06H217.681z
		 M219.727,7.524c-0.028,0.012-0.055,0.024-0.081,0.036c-0.026,0.012-0.053,0.02-0.081,0.024c-0.036,0.012-0.072,0.022-0.108,0.03
		c-0.035,0.008-0.073,0.016-0.113,0.024c-0.017,0-0.032,0.001-0.048,0.003c-0.017,0.002-0.032,0.005-0.049,0.009
		c-0.016,0.004-0.032,0.007-0.051,0.009c-0.018,0.002-0.035,0.005-0.051,0.009c-0.14,0.028-0.27,0.071-0.387,0.129
		c-0.118,0.058-0.178,0.171-0.178,0.339c0,0.1,0.037,0.191,0.111,0.273s0.191,0.127,0.351,0.135c0.032,0,0.066-0.004,0.103-0.012
		c0.036-0.008,0.072-0.018,0.108-0.03c0.115-0.04,0.221-0.121,0.314-0.243s0.146-0.309,0.153-0.561L219.727,7.524z"/>
	<path fill="#034EA2" d="M221.257,6.45V5.802h0.06h3.103V6.45h-1.068v2.586h-0.06h-0.966V6.45H221.257z"/>
	<path fill="#034EA2" d="M228.236,8.1c-0.013,0.052-0.028,0.105-0.048,0.159c-0.021,0.054-0.047,0.109-0.078,0.165
		c-0.101,0.18-0.269,0.344-0.504,0.492c-0.236,0.148-0.584,0.222-1.044,0.222l-0.061,0.006c-0.063-0.004-0.175-0.014-0.333-0.03
		c-0.158-0.016-0.327-0.062-0.507-0.138c-0.225-0.096-0.428-0.263-0.612-0.501c-0.184-0.238-0.275-0.591-0.275-1.059
		c0-0.512,0.157-0.926,0.474-1.242s0.758-0.474,1.326-0.474h0.06c0.561,0,0.979,0.164,1.254,0.492
		c0.276,0.328,0.414,0.756,0.414,1.284V7.62h-2.472c0,0.036,0.001,0.072,0.003,0.108s0.007,0.072,0.015,0.108
		c0.028,0.168,0.099,0.324,0.21,0.468c0.112,0.144,0.284,0.22,0.517,0.228c0.151-0.008,0.287-0.048,0.405-0.12
		c0.117-0.072,0.19-0.176,0.219-0.312h0.06H228.236z M227.246,7.116c-0.004-0.208-0.052-0.392-0.145-0.552
		c-0.092-0.16-0.262-0.244-0.51-0.252c-0.2,0.008-0.353,0.062-0.459,0.162c-0.105,0.1-0.183,0.208-0.23,0.324
		c-0.021,0.06-0.036,0.117-0.048,0.171c-0.013,0.054-0.021,0.103-0.024,0.147H227.246z"/>
	<path fill="#034EA2" d="M228.655,9.048V8.382h0.06c0.021,0.004,0.041,0.007,0.063,0.009c0.021,0.002,0.041,0.003,0.057,0.003
		c0.252-0.008,0.406-0.127,0.462-0.357c0.057-0.23,0.088-0.513,0.097-0.849l0.029-1.386h0.061h2.754v3.234h-0.06h-0.967V6.45h-0.804
		l-0.012,0.726c0,0.052-0.001,0.105-0.003,0.159c-0.002,0.054-0.005,0.107-0.01,0.159c-0.02,0.404-0.103,0.772-0.248,1.104
		c-0.146,0.332-0.464,0.498-0.951,0.498l-0.061,0.006c-0.067-0.004-0.141-0.01-0.219-0.018c-0.078-0.008-0.161-0.022-0.249-0.042
		V9.048z"/>
	<path fill="#034EA2" d="M234.08,5.802v1.182h0.612c0.075,0,0.165,0.003,0.267,0.009c0.103,0.006,0.207,0.021,0.315,0.045
		c0.199,0.044,0.384,0.139,0.552,0.285s0.252,0.387,0.252,0.723c0,0.304-0.071,0.524-0.213,0.66
		c-0.143,0.136-0.297,0.228-0.465,0.276c-0.093,0.024-0.182,0.039-0.268,0.045c-0.086,0.006-0.161,0.009-0.225,0.009h-0.061h-1.794
		V5.802h0.061H234.08z M234.08,8.424h0.378c0.028,0,0.056-0.001,0.084-0.003c0.028-0.002,0.056-0.003,0.084-0.003
		c0.1-0.016,0.191-0.051,0.273-0.105c0.082-0.054,0.123-0.155,0.123-0.303c0-0.132-0.047-0.234-0.139-0.306
		c-0.092-0.072-0.242-0.108-0.45-0.108h-0.354V8.424z"/>
	<path fill="#034EA2" d="M237.697,9.036h-0.06h-0.967V5.802h0.061h0.966V7.02h1.104V5.802h0.061h0.966v3.234h-0.06H238.8V7.668
		h-1.104V9.036z"/>
	<path fill="#034EA2" d="M241.949,9.132c-0.106-0.012-0.213-0.034-0.321-0.066c-0.284-0.076-0.545-0.238-0.783-0.486
		s-0.356-0.636-0.356-1.164c0-0.528,0.118-0.915,0.356-1.161c0.238-0.246,0.501-0.411,0.789-0.495
		c0.108-0.028,0.214-0.048,0.318-0.06c0.104-0.012,0.202-0.018,0.294-0.018h0.06c0.092,0,0.19,0.006,0.294,0.018
		c0.104,0.012,0.208,0.032,0.313,0.06c0.292,0.08,0.558,0.244,0.798,0.492c0.24,0.248,0.36,0.636,0.36,1.164
		c0,0.532-0.12,0.922-0.36,1.17c-0.24,0.248-0.506,0.41-0.798,0.486c-0.104,0.028-0.208,0.048-0.313,0.06
		c-0.104,0.012-0.202,0.018-0.294,0.018l-0.06,0.006C242.154,9.152,242.054,9.144,241.949,9.132z M242.758,8.31
		c0.103-0.128,0.169-0.268,0.201-0.42c0.02-0.088,0.033-0.174,0.039-0.258s0.009-0.156,0.009-0.216s-0.003-0.132-0.009-0.216
		s-0.02-0.17-0.039-0.258c-0.036-0.147-0.104-0.286-0.204-0.414s-0.26-0.194-0.479-0.198c-0.221,0.008-0.381,0.075-0.48,0.201
		s-0.166,0.265-0.198,0.417c-0.023,0.088-0.038,0.173-0.042,0.255s-0.006,0.153-0.006,0.213c0,0.364,0.053,0.621,0.159,0.771
		c0.105,0.15,0.223,0.245,0.351,0.285c0.036,0.012,0.072,0.021,0.108,0.027c0.036,0.006,0.072,0.009,0.108,0.009
		C242.496,8.504,242.657,8.438,242.758,8.31z"/>
	<path fill="#034EA2" d="M248.036,8.1c-0.013,0.052-0.028,0.105-0.048,0.159c-0.021,0.054-0.047,0.109-0.078,0.165
		c-0.101,0.18-0.269,0.344-0.504,0.492c-0.236,0.148-0.584,0.222-1.044,0.222l-0.061,0.006c-0.063-0.004-0.175-0.014-0.333-0.03
		c-0.158-0.016-0.327-0.062-0.507-0.138c-0.225-0.096-0.428-0.263-0.612-0.501c-0.184-0.238-0.275-0.591-0.275-1.059
		c0-0.512,0.157-0.926,0.474-1.242s0.758-0.474,1.326-0.474h0.06c0.561,0,0.979,0.164,1.254,0.492
		c0.276,0.328,0.414,0.756,0.414,1.284V7.62h-2.472c0,0.036,0.001,0.072,0.003,0.108s0.007,0.072,0.015,0.108
		c0.028,0.168,0.099,0.324,0.21,0.468c0.112,0.144,0.284,0.22,0.517,0.228c0.151-0.008,0.287-0.048,0.405-0.12
		c0.117-0.072,0.19-0.176,0.219-0.312h0.06H248.036z M247.045,7.116c-0.004-0.208-0.052-0.392-0.145-0.552
		c-0.092-0.16-0.262-0.244-0.51-0.252c-0.2,0.008-0.353,0.062-0.459,0.162c-0.105,0.1-0.183,0.208-0.23,0.324
		c-0.021,0.06-0.036,0.117-0.048,0.171c-0.013,0.054-0.021,0.103-0.024,0.147H247.045z"/>
	<path fill="#034EA2" d="M251.179,10.212V9.564h0.06c0.04,0.008,0.083,0.016,0.129,0.024c0.046,0.008,0.095,0.012,0.147,0.012
		c0.144-0.004,0.243-0.049,0.3-0.135c0.056-0.086,0.104-0.191,0.144-0.315L252.006,9l-1.409-3.198h0.06h1.164l0.714,2.01l0.558-2.01
		h0.061h1.026l-1.122,3.408c-0.089,0.276-0.205,0.521-0.352,0.735c-0.146,0.214-0.409,0.321-0.789,0.321l-0.06,0.006
		c-0.032-0.004-0.065-0.007-0.1-0.009c-0.033-0.002-0.068-0.003-0.104-0.003c-0.061-0.004-0.12-0.009-0.18-0.015
		c-0.061-0.006-0.114-0.013-0.162-0.021c-0.028-0.004-0.054-0.007-0.075-0.009c-0.022-0.002-0.041-0.005-0.057-0.009V10.212z"/>
	<path fill="#034EA2" d="M255.493,5.802v0.942V6.75c0,0.004,0,0.008,0,0.012s0,0.01,0,0.018c0,0.104,0.022,0.2,0.068,0.288
		c0.046,0.088,0.189,0.134,0.43,0.138c0.031,0,0.062,0,0.09,0c0.027,0,0.056,0,0.084,0c0.044-0.004,0.088-0.008,0.132-0.012
		s0.096-0.01,0.156-0.018V5.802h0.06h0.966v3.234h-0.06h-0.966V7.83c-0.204,0.008-0.352,0.014-0.441,0.018s-0.161,0.006-0.213,0.006
		h-0.06c-0.484,0-0.808-0.077-0.97-0.231c-0.162-0.154-0.257-0.323-0.285-0.507c-0.008-0.056-0.013-0.111-0.015-0.165
		s-0.003-0.107-0.003-0.159v-0.99h0.06H255.493z"/>
	<path fill="#034EA2" d="M259.261,5.802l-0.007,0.342c0.036-0.04,0.073-0.077,0.111-0.111s0.075-0.063,0.111-0.087
		c0.14-0.104,0.276-0.172,0.411-0.204c0.134-0.032,0.257-0.048,0.368-0.048h0.061c0.492,0,0.859,0.17,1.104,0.51
		s0.366,0.748,0.366,1.224c0,0.46-0.123,0.859-0.369,1.197c-0.246,0.338-0.619,0.507-1.119,0.507l-0.06,0.006
		c-0.176-0.004-0.345-0.038-0.507-0.102s-0.299-0.152-0.411-0.264v1.44h-0.06h-0.967v-4.41h0.061H259.261z M259.45,8.148
		c0.118,0.196,0.301,0.298,0.549,0.306c0.248-0.008,0.432-0.11,0.549-0.306c0.118-0.196,0.178-0.44,0.178-0.732
		c0-0.34-0.068-0.596-0.204-0.768c-0.137-0.172-0.311-0.262-0.522-0.27c-0.208,0.008-0.381,0.098-0.519,0.27
		c-0.139,0.172-0.207,0.428-0.207,0.768C259.273,7.708,259.332,7.952,259.45,8.148z"/>
	<path fill="#034EA2" d="M265.753,8.1c-0.013,0.052-0.028,0.105-0.048,0.159c-0.021,0.054-0.047,0.109-0.078,0.165
		c-0.101,0.18-0.269,0.344-0.504,0.492c-0.236,0.148-0.584,0.222-1.044,0.222l-0.061,0.006c-0.063-0.004-0.175-0.014-0.333-0.03
		c-0.158-0.016-0.327-0.062-0.507-0.138c-0.225-0.096-0.428-0.263-0.612-0.501c-0.184-0.238-0.275-0.591-0.275-1.059
		c0-0.512,0.157-0.926,0.474-1.242s0.758-0.474,1.326-0.474h0.06c0.561,0,0.979,0.164,1.254,0.492
		c0.276,0.328,0.414,0.756,0.414,1.284V7.62h-2.472c0,0.036,0.001,0.072,0.003,0.108s0.007,0.072,0.015,0.108
		c0.028,0.168,0.099,0.324,0.21,0.468c0.112,0.144,0.284,0.22,0.517,0.228c0.151-0.008,0.287-0.048,0.405-0.12
		c0.117-0.072,0.19-0.176,0.219-0.312h0.06H265.753z M264.763,7.116c-0.004-0.208-0.052-0.392-0.145-0.552
		c-0.092-0.16-0.262-0.244-0.51-0.252c-0.2,0.008-0.353,0.062-0.459,0.162c-0.105,0.1-0.183,0.208-0.23,0.324
		c-0.021,0.06-0.036,0.117-0.048,0.171c-0.013,0.054-0.021,0.103-0.024,0.147H264.763z"/>
	<path fill="#034EA2" d="M268.092,7.686l-0.882,1.35h-0.061h-1.121l1.308-1.698l-1.224-1.536h0.06h1.063l0.857,1.26v-1.26h0.061
		h0.924v1.26l0.857-1.26h0.061h1.062l-1.224,1.536l1.313,1.698h-0.06h-1.122l-0.888-1.35v1.35h-0.061h-0.924V7.686z"/>
	<path fill="#034EA2" d="M271.548,8.388c0.188-0.292,0.319-0.602,0.394-0.93c0.073-0.328,0.11-0.68,0.11-1.056v-0.6h0.061h2.766
		v2.586h0.534l-0.054,1.488h-0.061h-0.822v-0.84h-2.418v0.84h-0.06h-0.822l-0.054-1.488H271.548z M273,6.45l-0.006,0.342
		c-0.004,0.136-0.018,0.31-0.039,0.522c-0.022,0.212-0.073,0.43-0.153,0.654c-0.023,0.072-0.052,0.143-0.084,0.213
		s-0.067,0.139-0.107,0.207h1.242V6.45H273z"/>
	<path fill="#034EA2" d="M279.205,8.1c-0.013,0.052-0.028,0.105-0.048,0.159c-0.021,0.054-0.047,0.109-0.078,0.165
		c-0.101,0.18-0.269,0.344-0.504,0.492c-0.236,0.148-0.584,0.222-1.044,0.222l-0.061,0.006c-0.063-0.004-0.175-0.014-0.333-0.03
		c-0.158-0.016-0.327-0.062-0.507-0.138c-0.225-0.096-0.428-0.263-0.612-0.501c-0.184-0.238-0.275-0.591-0.275-1.059
		c0-0.512,0.157-0.926,0.474-1.242s0.758-0.474,1.326-0.474h0.06c0.561,0,0.979,0.164,1.254,0.492
		c0.276,0.328,0.414,0.756,0.414,1.284V7.62h-2.472c0,0.036,0.001,0.072,0.003,0.108s0.007,0.072,0.015,0.108
		c0.028,0.168,0.099,0.324,0.21,0.468c0.112,0.144,0.284,0.22,0.517,0.228c0.151-0.008,0.287-0.048,0.405-0.12
		c0.117-0.072,0.19-0.176,0.219-0.312h0.06H279.205z M278.214,7.116c-0.004-0.208-0.052-0.392-0.145-0.552
		c-0.092-0.16-0.262-0.244-0.51-0.252c-0.2,0.008-0.353,0.062-0.459,0.162c-0.105,0.1-0.183,0.208-0.23,0.324
		c-0.021,0.06-0.036,0.117-0.048,0.171c-0.013,0.054-0.021,0.103-0.024,0.147H278.214z"/>
	<path fill="#034EA2" d="M280.957,9.036h-0.06h-0.967V5.802h0.061h0.966V7.02h1.104V5.802h0.061h0.966v3.234h-0.06h-0.967V7.668
		h-1.104V9.036z"/>
	<path fill="#034EA2" d="M286.188,5.802h0.061h1.025v3.234h-0.06h-0.966V7.032l-1.261,2.004h-0.06h-1.026V5.802h0.061h0.966v2.004
		L286.188,5.802z"/>
	<path fill="#034EA2" d="M291.397,8.1c-0.013,0.052-0.028,0.105-0.048,0.159c-0.021,0.054-0.047,0.109-0.078,0.165
		c-0.101,0.18-0.269,0.344-0.504,0.492c-0.236,0.148-0.584,0.222-1.044,0.222l-0.061,0.006c-0.063-0.004-0.175-0.014-0.333-0.03
		c-0.158-0.016-0.327-0.062-0.507-0.138c-0.225-0.096-0.428-0.263-0.612-0.501c-0.184-0.238-0.275-0.591-0.275-1.059
		c0-0.512,0.157-0.926,0.474-1.242s0.758-0.474,1.326-0.474h0.06c0.561,0,0.979,0.164,1.254,0.492
		c0.276,0.328,0.414,0.756,0.414,1.284V7.62h-2.472c0,0.036,0.001,0.072,0.003,0.108S289,7.8,289.008,7.836
		c0.028,0.168,0.099,0.324,0.21,0.468c0.112,0.144,0.284,0.22,0.517,0.228c0.151-0.008,0.287-0.048,0.405-0.12
		c0.117-0.072,0.19-0.176,0.219-0.312h0.06H291.397z M290.407,7.116c-0.004-0.208-0.052-0.392-0.145-0.552
		c-0.092-0.16-0.262-0.244-0.51-0.252c-0.2,0.008-0.353,0.062-0.459,0.162c-0.105,0.1-0.183,0.208-0.23,0.324
		c-0.021,0.06-0.036,0.117-0.048,0.171c-0.013,0.054-0.021,0.103-0.024,0.147H290.407z"/>
	<path fill="#034EA2" d="M296.544,4.584c0.027,0,0.056,0,0.084,0c0.027,0,0.056,0.002,0.084,0.006
		c0.367,0.02,0.705,0.128,1.011,0.324c0.306,0.196,0.459,0.566,0.459,1.11c0,0.44-0.094,0.762-0.282,0.966
		c-0.188,0.204-0.394,0.342-0.618,0.414c-0.147,0.048-0.291,0.077-0.429,0.087c-0.138,0.01-0.249,0.015-0.333,0.015h-1.002v1.53
		h-0.06h-1.051V4.584h0.061H296.544z M295.518,6.642h0.762c0.236,0,0.42-0.043,0.553-0.129c0.132-0.086,0.197-0.247,0.197-0.483
		c0-0.22-0.063-0.371-0.188-0.453s-0.313-0.123-0.562-0.123h-0.762V6.642z"/>
	<path fill="#034EA2" d="M300.082,9.132c-0.106-0.012-0.213-0.034-0.321-0.066c-0.284-0.076-0.545-0.238-0.783-0.486
		s-0.356-0.636-0.356-1.164c0-0.528,0.118-0.915,0.356-1.161c0.238-0.246,0.501-0.411,0.789-0.495
		c0.108-0.028,0.214-0.048,0.318-0.06c0.104-0.012,0.202-0.018,0.294-0.018h0.06c0.092,0,0.19,0.006,0.294,0.018
		c0.104,0.012,0.208,0.032,0.313,0.06c0.292,0.08,0.558,0.244,0.798,0.492c0.24,0.248,0.36,0.636,0.36,1.164
		c0,0.532-0.12,0.922-0.36,1.17c-0.24,0.248-0.506,0.41-0.798,0.486c-0.104,0.028-0.208,0.048-0.313,0.06
		c-0.104,0.012-0.202,0.018-0.294,0.018l-0.06,0.006C300.287,9.152,300.187,9.144,300.082,9.132z M300.891,8.31
		c0.103-0.128,0.169-0.268,0.201-0.42c0.02-0.088,0.033-0.174,0.039-0.258s0.009-0.156,0.009-0.216s-0.003-0.132-0.009-0.216
		s-0.02-0.17-0.039-0.258c-0.036-0.147-0.104-0.286-0.204-0.414s-0.26-0.194-0.479-0.198c-0.221,0.008-0.381,0.075-0.48,0.201
		s-0.166,0.265-0.198,0.417c-0.023,0.088-0.038,0.173-0.042,0.255s-0.006,0.153-0.006,0.213c0,0.364,0.053,0.621,0.159,0.771
		c0.105,0.15,0.223,0.245,0.351,0.285c0.036,0.012,0.072,0.021,0.108,0.027c0.036,0.006,0.072,0.009,0.108,0.009
		C300.628,8.504,300.79,8.438,300.891,8.31z"/>
	<path fill="#034EA2" d="M306.084,7.818c-0.044,0.352-0.149,0.62-0.315,0.804s-0.343,0.314-0.531,0.39
		c-0.147,0.06-0.292,0.097-0.432,0.111s-0.248,0.021-0.324,0.021l-0.06,0.006c-0.568-0.004-0.996-0.164-1.284-0.48
		c-0.288-0.316-0.432-0.729-0.432-1.242c0-0.092,0.006-0.19,0.018-0.294s0.032-0.208,0.06-0.312c0.08-0.288,0.246-0.55,0.498-0.786
		s0.652-0.354,1.2-0.354h0.061c0.428,0,0.749,0.088,0.963,0.264c0.214,0.176,0.36,0.368,0.44,0.576
		c0.032,0.076,0.056,0.151,0.069,0.225c0.014,0.074,0.025,0.143,0.033,0.207h-0.061h-0.93c-0.024-0.208-0.079-0.356-0.165-0.444
		s-0.179-0.142-0.279-0.162c-0.023-0.008-0.047-0.013-0.068-0.015c-0.022-0.002-0.045-0.003-0.069-0.003
		c-0.032,0-0.065,0.003-0.099,0.009c-0.034,0.006-0.067,0.013-0.1,0.021c-0.128,0.036-0.245,0.125-0.351,0.267
		c-0.106,0.142-0.159,0.385-0.159,0.729c0,0.356,0.049,0.615,0.147,0.777c0.098,0.162,0.204,0.267,0.32,0.315
		c0.04,0.02,0.079,0.034,0.117,0.042c0.038,0.008,0.075,0.012,0.111,0.012c0.147-0.004,0.263-0.044,0.345-0.12
		c0.082-0.076,0.143-0.158,0.183-0.246c0.028-0.064,0.048-0.125,0.058-0.183s0.017-0.103,0.021-0.135h0.061H306.084z"/>
	<path fill="#034EA2" d="M306.42,6.45V5.802h0.06h3.103V6.45h-1.068v2.586h-0.06h-0.966V6.45H306.42z"/>
	<path fill="#034EA2" d="M311.397,9.132c-0.106-0.012-0.213-0.034-0.321-0.066c-0.284-0.076-0.545-0.238-0.783-0.486
		s-0.356-0.636-0.356-1.164c0-0.528,0.118-0.915,0.356-1.161c0.238-0.246,0.501-0.411,0.789-0.495
		c0.108-0.028,0.214-0.048,0.318-0.06c0.104-0.012,0.202-0.018,0.294-0.018h0.06c0.092,0,0.19,0.006,0.294,0.018
		c0.104,0.012,0.208,0.032,0.313,0.06c0.292,0.08,0.558,0.244,0.798,0.492c0.24,0.248,0.36,0.636,0.36,1.164
		c0,0.532-0.12,0.922-0.36,1.17c-0.24,0.248-0.506,0.41-0.798,0.486c-0.104,0.028-0.208,0.048-0.313,0.06
		c-0.104,0.012-0.202,0.018-0.294,0.018l-0.06,0.006C311.602,9.152,311.502,9.144,311.397,9.132z M312.207,8.31
		c0.103-0.128,0.169-0.268,0.201-0.42c0.02-0.088,0.033-0.174,0.039-0.258s0.009-0.156,0.009-0.216s-0.003-0.132-0.009-0.216
		s-0.02-0.17-0.039-0.258c-0.036-0.147-0.104-0.286-0.204-0.414s-0.26-0.194-0.479-0.198c-0.221,0.008-0.381,0.075-0.48,0.201
		s-0.166,0.265-0.198,0.417c-0.023,0.088-0.038,0.173-0.042,0.255s-0.006,0.153-0.006,0.213c0,0.364,0.053,0.621,0.159,0.771
		c0.105,0.15,0.223,0.245,0.351,0.285c0.036,0.012,0.072,0.021,0.108,0.027c0.036,0.006,0.072,0.009,0.108,0.009
		C311.944,8.504,312.105,8.438,312.207,8.31z"/>
	<path fill="#034EA2" d="M316.164,5.802c0.376,0,0.643,0.069,0.801,0.207c0.158,0.138,0.237,0.331,0.237,0.579
		c0,0.212-0.055,0.377-0.165,0.495c-0.11,0.118-0.231,0.197-0.363,0.237c-0.02,0.004-0.038,0.008-0.054,0.012
		s-0.032,0.008-0.048,0.012v0.018c0.284,0.052,0.483,0.149,0.6,0.291c0.116,0.142,0.174,0.327,0.174,0.555
		c0,0.324-0.106,0.543-0.32,0.657c-0.214,0.114-0.503,0.171-0.867,0.171h-0.061h-1.92V5.802h0.061H316.164z M315.204,7.086h0.444
		c0.204,0,0.342-0.028,0.414-0.084c0.071-0.056,0.107-0.136,0.107-0.24c0-0.1-0.031-0.183-0.093-0.249
		c-0.063-0.066-0.199-0.099-0.411-0.099h-0.462V7.086z M315.204,8.424h0.546c0.148,0,0.275-0.024,0.381-0.072
		c0.106-0.048,0.159-0.146,0.159-0.294c0-0.152-0.053-0.254-0.159-0.306c-0.105-0.052-0.239-0.078-0.398-0.078h-0.528V8.424z"/>
	<path fill="#034EA2" d="M321.21,7.818c-0.044,0.352-0.149,0.62-0.315,0.804s-0.343,0.314-0.531,0.39
		c-0.147,0.06-0.292,0.097-0.432,0.111s-0.248,0.021-0.324,0.021l-0.06,0.006c-0.568-0.004-0.996-0.164-1.284-0.48
		c-0.288-0.316-0.432-0.729-0.432-1.242c0-0.092,0.006-0.19,0.018-0.294s0.032-0.208,0.06-0.312c0.08-0.288,0.246-0.55,0.498-0.786
		s0.652-0.354,1.2-0.354h0.061c0.428,0,0.749,0.088,0.963,0.264c0.214,0.176,0.36,0.368,0.44,0.576
		c0.032,0.076,0.056,0.151,0.069,0.225c0.014,0.074,0.025,0.143,0.033,0.207h-0.061h-0.93c-0.024-0.208-0.079-0.356-0.165-0.444
		s-0.179-0.142-0.279-0.162c-0.023-0.008-0.047-0.013-0.068-0.015c-0.022-0.002-0.045-0.003-0.069-0.003
		c-0.032,0-0.065,0.003-0.099,0.009c-0.034,0.006-0.067,0.013-0.1,0.021c-0.128,0.036-0.245,0.125-0.351,0.267
		c-0.106,0.142-0.159,0.385-0.159,0.729c0,0.356,0.049,0.615,0.147,0.777c0.098,0.162,0.204,0.267,0.32,0.315
		c0.04,0.02,0.079,0.034,0.117,0.042c0.038,0.008,0.075,0.012,0.111,0.012c0.147-0.004,0.263-0.044,0.345-0.12
		c0.082-0.076,0.143-0.158,0.183-0.246c0.028-0.064,0.048-0.125,0.058-0.183s0.017-0.103,0.021-0.135h0.061H321.21z"/>
	<path fill="#034EA2" d="M323.874,5.802h0.06h1.074l-1.332,1.518l1.398,1.716h-0.061h-1.134l-1.002-1.356v1.356h-0.06h-0.967V5.802
		h0.061h0.966V7.05L323.874,5.802z"/>
	<path fill="#034EA2" d="M326.745,9.132c-0.106-0.012-0.213-0.034-0.321-0.066c-0.284-0.076-0.545-0.238-0.783-0.486
		s-0.356-0.636-0.356-1.164c0-0.528,0.118-0.915,0.356-1.161c0.238-0.246,0.501-0.411,0.789-0.495
		c0.108-0.028,0.214-0.048,0.318-0.06c0.104-0.012,0.202-0.018,0.294-0.018h0.06c0.092,0,0.19,0.006,0.294,0.018
		c0.104,0.012,0.208,0.032,0.313,0.06c0.292,0.08,0.558,0.244,0.798,0.492c0.24,0.248,0.36,0.636,0.36,1.164
		c0,0.532-0.12,0.922-0.36,1.17c-0.24,0.248-0.506,0.41-0.798,0.486c-0.104,0.028-0.208,0.048-0.313,0.06
		c-0.104,0.012-0.202,0.018-0.294,0.018l-0.06,0.006C326.95,9.152,326.85,9.144,326.745,9.132z M327.554,8.31
		c0.103-0.128,0.169-0.268,0.201-0.42c0.02-0.088,0.033-0.174,0.039-0.258s0.009-0.156,0.009-0.216S327.8,7.284,327.794,7.2
		s-0.02-0.17-0.039-0.258c-0.036-0.147-0.104-0.286-0.204-0.414s-0.26-0.194-0.479-0.198c-0.221,0.008-0.381,0.075-0.48,0.201
		s-0.166,0.265-0.198,0.417c-0.023,0.088-0.038,0.173-0.042,0.255s-0.006,0.153-0.006,0.213c0,0.364,0.053,0.621,0.159,0.771
		c0.105,0.15,0.223,0.245,0.351,0.285c0.036,0.012,0.072,0.021,0.108,0.027c0.036,0.006,0.072,0.009,0.108,0.009
		C327.292,8.504,327.453,8.438,327.554,8.31z"/>
	<path fill="#034EA2" d="M331.811,5.802h0.061h1.025v3.234h-0.06h-0.966V7.032l-1.261,2.004h-0.06h-1.026V5.802h0.061h0.966v2.004
		L331.811,5.802z M330.689,4.584c0,0.124,0.044,0.224,0.132,0.3c0.089,0.076,0.219,0.118,0.391,0.126
		c0.176-0.008,0.307-0.05,0.393-0.126c0.086-0.076,0.129-0.176,0.129-0.3h0.061h0.708c-0.004,0.048-0.016,0.105-0.033,0.171
		c-0.018,0.066-0.047,0.133-0.087,0.201c-0.072,0.128-0.195,0.244-0.369,0.348s-0.431,0.156-0.771,0.156h-0.061
		c-0.364,0-0.635-0.059-0.813-0.177c-0.179-0.118-0.3-0.249-0.363-0.393c-0.024-0.052-0.043-0.104-0.057-0.156
		c-0.015-0.052-0.023-0.102-0.027-0.15h0.06H330.689z"/>
	<path fill="#034EA2" d="M337.221,9.132c-0.106-0.012-0.213-0.034-0.321-0.066c-0.284-0.076-0.545-0.238-0.783-0.486
		s-0.356-0.636-0.356-1.164c0-0.528,0.118-0.915,0.356-1.161c0.238-0.246,0.501-0.411,0.789-0.495
		c0.108-0.028,0.214-0.048,0.318-0.06c0.104-0.012,0.202-0.018,0.294-0.018h0.06c0.092,0,0.19,0.006,0.294,0.018
		c0.104,0.012,0.208,0.032,0.313,0.06c0.292,0.08,0.558,0.244,0.798,0.492c0.24,0.248,0.36,0.636,0.36,1.164
		c0,0.532-0.12,0.922-0.36,1.17c-0.24,0.248-0.506,0.41-0.798,0.486c-0.104,0.028-0.208,0.048-0.313,0.06
		c-0.104,0.012-0.202,0.018-0.294,0.018l-0.06,0.006C337.426,9.152,337.327,9.144,337.221,9.132z M338.031,8.31
		c0.103-0.128,0.169-0.268,0.201-0.42c0.02-0.088,0.033-0.174,0.039-0.258s0.009-0.156,0.009-0.216s-0.003-0.132-0.009-0.216
		s-0.02-0.17-0.039-0.258c-0.036-0.147-0.104-0.286-0.204-0.414s-0.26-0.194-0.479-0.198c-0.221,0.008-0.381,0.075-0.48,0.201
		s-0.166,0.265-0.198,0.417c-0.023,0.088-0.038,0.173-0.042,0.255s-0.006,0.153-0.006,0.213c0,0.364,0.053,0.621,0.159,0.771
		c0.105,0.15,0.223,0.245,0.351,0.285c0.036,0.012,0.072,0.021,0.108,0.027c0.036,0.006,0.072,0.009,0.108,0.009
		C337.768,8.504,337.929,8.438,338.031,8.31z"/>
	<path fill="#034EA2" d="M343.308,4.284c-0.017,0.372-0.15,0.612-0.402,0.72c-0.252,0.108-0.526,0.18-0.822,0.216
		c-0.004,0-0.007,0-0.009,0s-0.005,0-0.009,0c-0.364,0.044-0.697,0.132-0.999,0.264c-0.302,0.132-0.481,0.482-0.537,1.05
		c0.108-0.228,0.271-0.397,0.486-0.507c0.216-0.11,0.443-0.175,0.684-0.195c0.032,0,0.063-0.001,0.093-0.003
		c0.03-0.002,0.06-0.003,0.087-0.003h0.061c0.508,0,0.896,0.153,1.167,0.459c0.27,0.306,0.405,0.685,0.405,1.137
		c0,0.496-0.145,0.905-0.433,1.227c-0.288,0.322-0.71,0.483-1.266,0.483l-0.061,0.006c-0.096-0.004-0.199-0.012-0.312-0.024
		c-0.112-0.012-0.227-0.038-0.342-0.078c-0.292-0.088-0.561-0.293-0.805-0.615c-0.243-0.322-0.365-0.853-0.365-1.593
		c0-0.868,0.162-1.458,0.485-1.77c0.324-0.312,0.802-0.496,1.435-0.552c0.031-0.004,0.063-0.007,0.093-0.009
		s0.059-0.005,0.087-0.009c0.136-0.012,0.235-0.03,0.297-0.054c0.063-0.024,0.107-0.074,0.135-0.15h0.061H343.308z M341.235,8.262
		c0.146,0.144,0.313,0.22,0.501,0.228c0.184-0.008,0.349-0.084,0.495-0.228c0.146-0.144,0.219-0.404,0.219-0.78
		c0-0.304-0.049-0.527-0.146-0.669c-0.099-0.142-0.205-0.237-0.321-0.285c-0.044-0.02-0.087-0.034-0.129-0.042
		c-0.042-0.008-0.081-0.012-0.117-0.012s-0.084,0.006-0.144,0.018c-0.061,0.012-0.12,0.036-0.181,0.072
		c-0.1,0.056-0.19,0.153-0.272,0.291c-0.082,0.138-0.123,0.347-0.123,0.627C341.016,7.858,341.088,8.118,341.235,8.262z"/>
	<path fill="#034EA2" d="M343.866,9.048V8.382h0.06c0.021,0.004,0.041,0.007,0.063,0.009c0.021,0.002,0.041,0.003,0.057,0.003
		c0.252-0.008,0.406-0.127,0.462-0.357c0.057-0.23,0.088-0.513,0.097-0.849l0.029-1.386h0.061h2.754v3.234h-0.06h-0.967V6.45h-0.804
		l-0.012,0.726c0,0.052-0.001,0.105-0.003,0.159c-0.002,0.054-0.005,0.107-0.01,0.159c-0.02,0.404-0.103,0.772-0.248,1.104
		c-0.146,0.332-0.464,0.498-0.951,0.498l-0.061,0.006c-0.067-0.004-0.141-0.01-0.219-0.018c-0.078-0.008-0.161-0.022-0.249-0.042
		V9.048z"/>
	<path fill="#034EA2" d="M348.324,6.846c0-0.028,0.002-0.056,0.006-0.084s0.008-0.058,0.012-0.09
		c0.04-0.236,0.168-0.454,0.384-0.654c0.217-0.2,0.591-0.3,1.122-0.3h0.061c0.439,0,0.762,0.065,0.966,0.195s0.34,0.273,0.408,0.429
		c0.048,0.104,0.076,0.204,0.084,0.3s0.012,0.174,0.012,0.234c0,0.004,0,0.007,0,0.009s0,0.005,0,0.009l-0.012,1.476
		c0,0.012,0,0.023,0,0.033c0,0.01,0,0.017,0,0.021s0,0.008,0,0.012s0.002,0.008,0.006,0.012c0,0.012,0,0.028,0,0.048
		s0,0.052,0,0.096c0,0.024,0.001,0.049,0.003,0.075c0.002,0.026,0.005,0.053,0.009,0.081c0.008,0.052,0.025,0.102,0.051,0.15
		c0.026,0.048,0.067,0.086,0.123,0.114v0.024h-0.06h-1.014l-0.078-0.282c-0.061,0.064-0.126,0.119-0.198,0.165
		c-0.072,0.046-0.146,0.083-0.222,0.111c-0.141,0.048-0.271,0.077-0.394,0.087c-0.122,0.01-0.201,0.015-0.236,0.015l-0.061,0.006
		c-0.312-0.004-0.545-0.055-0.699-0.153c-0.153-0.098-0.263-0.209-0.326-0.333c-0.045-0.088-0.071-0.172-0.081-0.252
		c-0.011-0.08-0.016-0.14-0.016-0.18c0-0.396,0.139-0.655,0.417-0.777s0.585-0.205,0.921-0.249c0.013,0,0.023-0.001,0.033-0.003
		c0.01-0.002,0.021-0.003,0.033-0.003c0.072-0.008,0.138-0.016,0.198-0.024c0.06-0.008,0.113-0.014,0.162-0.018
		c0.168-0.028,0.278-0.06,0.333-0.096c0.054-0.036,0.082-0.104,0.087-0.204c0-0.008,0-0.015,0-0.021s0-0.013,0-0.021
		s0-0.015,0-0.021s0-0.013,0-0.021c0-0.024-0.003-0.052-0.01-0.084c-0.006-0.032-0.015-0.066-0.026-0.102
		c-0.024-0.06-0.07-0.115-0.139-0.165c-0.067-0.05-0.172-0.077-0.312-0.081c-0.176,0.004-0.304,0.041-0.384,0.111
		c-0.08,0.07-0.132,0.147-0.156,0.231c-0.008,0.028-0.014,0.057-0.018,0.087c-0.005,0.03-0.007,0.059-0.007,0.087h-0.06H348.324z
		 M350.37,7.524c-0.028,0.012-0.055,0.024-0.081,0.036c-0.026,0.012-0.053,0.02-0.081,0.024c-0.036,0.012-0.072,0.022-0.108,0.03
		c-0.035,0.008-0.073,0.016-0.113,0.024c-0.017,0-0.032,0.001-0.048,0.003c-0.017,0.002-0.032,0.005-0.049,0.009
		c-0.016,0.004-0.032,0.007-0.051,0.009c-0.018,0.002-0.035,0.005-0.051,0.009c-0.14,0.028-0.27,0.071-0.387,0.129
		c-0.118,0.058-0.178,0.171-0.178,0.339c0,0.1,0.037,0.191,0.111,0.273s0.191,0.127,0.351,0.135c0.032,0,0.066-0.004,0.103-0.012
		c0.036-0.008,0.072-0.018,0.108-0.03c0.115-0.04,0.221-0.121,0.314-0.243s0.146-0.309,0.153-0.561L350.37,7.524z"/>
	<path fill="#034EA2" d="M355.427,7.818c-0.044,0.352-0.149,0.62-0.315,0.804s-0.343,0.314-0.531,0.39
		c-0.147,0.06-0.292,0.097-0.432,0.111s-0.248,0.021-0.324,0.021l-0.06,0.006c-0.568-0.004-0.996-0.164-1.284-0.48
		c-0.288-0.316-0.432-0.729-0.432-1.242c0-0.092,0.006-0.19,0.018-0.294s0.032-0.208,0.06-0.312c0.08-0.288,0.246-0.55,0.498-0.786
		s0.652-0.354,1.2-0.354h0.061c0.428,0,0.749,0.088,0.963,0.264c0.214,0.176,0.36,0.368,0.44,0.576
		c0.032,0.076,0.056,0.151,0.069,0.225c0.014,0.074,0.025,0.143,0.033,0.207h-0.061h-0.93c-0.024-0.208-0.079-0.356-0.165-0.444
		s-0.179-0.142-0.279-0.162c-0.023-0.008-0.047-0.013-0.068-0.015c-0.022-0.002-0.045-0.003-0.069-0.003
		c-0.032,0-0.065,0.003-0.099,0.009c-0.034,0.006-0.067,0.013-0.1,0.021c-0.128,0.036-0.245,0.125-0.351,0.267
		c-0.106,0.142-0.159,0.385-0.159,0.729c0,0.356,0.049,0.615,0.147,0.777c0.098,0.162,0.204,0.267,0.32,0.315
		c0.04,0.02,0.079,0.034,0.117,0.042c0.038,0.008,0.075,0.012,0.111,0.012c0.147-0.004,0.263-0.044,0.345-0.12
		c0.082-0.076,0.143-0.158,0.183-0.246c0.028-0.064,0.048-0.125,0.058-0.183s0.017-0.103,0.021-0.135h0.061H355.427z"/>
	<path fill="#034EA2" d="M355.763,6.45V5.802h0.06h3.103V6.45h-1.068v2.586h-0.06h-0.966V6.45H355.763z"/>
	<path fill="#034EA2" d="M361.721,5.802h0.061h1.025v3.234h-0.06h-0.966V7.032l-1.261,2.004h-0.06h-1.026V5.802h0.061h0.966v2.004
		L361.721,5.802z"/>
	<path fill="#034EA2" d="M23.975,13.616c0.046,0,0.093,0,0.14,0c0.046,0,0.093,0.003,0.14,0.01c0.613,0.034,1.175,0.213,1.685,0.54
		c0.51,0.326,0.765,0.943,0.765,1.85c0,0.734-0.157,1.271-0.47,1.61c-0.313,0.341-0.657,0.57-1.03,0.69
		c-0.247,0.08-0.485,0.128-0.715,0.145c-0.23,0.018-0.415,0.025-0.555,0.025h-1.67v2.55h-0.1h-1.75v-7.42h0.1H23.975z
		 M22.265,17.046h1.27c0.393,0,0.7-0.071,0.92-0.215c0.22-0.144,0.33-0.411,0.33-0.805c0-0.366-0.105-0.618-0.315-0.755
		c-0.21-0.137-0.522-0.205-0.935-0.205h-1.27V17.046z"/>
	<path fill="#034EA2" d="M28.29,20.036c-0.57-0.8-0.855-1.703-0.855-2.71c0-1.014,0.285-1.92,0.855-2.721
		c0.57-0.799,1.535-1.199,2.895-1.199h0.1c1.367,0,2.333,0.4,2.9,1.199c0.566,0.801,0.85,1.707,0.85,2.721s-0.283,1.918-0.85,2.715
		c-0.567,0.797-1.534,1.195-2.9,1.195l-0.1,0.01C29.824,21.239,28.859,20.836,28.29,20.036z M32.369,19.391
		c0.25-0.263,0.425-0.555,0.525-0.875c0.073-0.246,0.116-0.48,0.13-0.705c0.013-0.223,0.02-0.385,0.02-0.484
		c0-0.746-0.112-1.291-0.335-1.635c-0.224-0.344-0.469-0.575-0.735-0.695c-0.134-0.061-0.265-0.1-0.395-0.12
		c-0.13-0.021-0.245-0.03-0.345-0.03s-0.215,0.01-0.345,0.03c-0.13,0.021-0.265,0.063-0.405,0.13c-0.267,0.12-0.51,0.352-0.73,0.695
		s-0.33,0.885-0.33,1.625c0,0.133,0.007,0.283,0.02,0.45s0.04,0.337,0.08,0.51c0.08,0.374,0.247,0.717,0.5,1.03
		c0.253,0.313,0.657,0.477,1.21,0.49C31.741,19.793,32.119,19.654,32.369,19.391z"/>
	<path fill="#034EA2" d="M43.034,18.416c-0.013,0.16-0.043,0.342-0.09,0.545c-0.047,0.203-0.117,0.412-0.21,0.625
		c-0.193,0.42-0.523,0.806-0.99,1.155c-0.466,0.35-1.16,0.525-2.08,0.525l-0.1,0.01c-0.087-0.007-0.172-0.012-0.255-0.016
		c-0.083-0.003-0.168-0.008-0.255-0.015c-0.78-0.073-1.495-0.371-2.145-0.895c-0.65-0.523-0.975-1.485-0.975-2.885
		c0-1.188,0.288-2.159,0.865-2.916c0.577-0.756,1.479-1.135,2.705-1.135h0.1c0.92,0,1.615,0.167,2.085,0.5
		c0.47,0.333,0.798,0.703,0.985,1.11c0.1,0.2,0.17,0.396,0.21,0.59s0.063,0.366,0.07,0.521h-0.1h-1.72
		c-0.007-0.067-0.023-0.152-0.05-0.256c-0.027-0.104-0.067-0.208-0.12-0.314c-0.093-0.174-0.244-0.334-0.45-0.48
		s-0.5-0.223-0.88-0.23c-0.586,0.014-1.019,0.252-1.295,0.716c-0.277,0.464-0.415,1.071-0.415,1.825
		c0,0.086,0.008,0.241,0.025,0.465c0.017,0.223,0.068,0.465,0.155,0.725c0.106,0.301,0.281,0.578,0.525,0.835
		c0.243,0.257,0.598,0.392,1.065,0.405c0.394-0.014,0.693-0.106,0.9-0.28c0.207-0.173,0.357-0.363,0.45-0.569
		c0.046-0.101,0.082-0.199,0.105-0.295c0.023-0.098,0.038-0.186,0.045-0.266h0.1H43.034z"/>
	<path fill="#034EA2" d="M43.455,15.057v-1.44h0.1h6.23v1.44h-2.24v5.979h-0.1h-1.75v-5.979H43.455z"/>
	<path fill="#034EA2" d="M51.229,20.036c-0.57-0.8-0.855-1.703-0.855-2.71c0-1.014,0.285-1.92,0.855-2.721
		c0.57-0.799,1.535-1.199,2.895-1.199h0.1c1.367,0,2.333,0.4,2.9,1.199c0.566,0.801,0.85,1.707,0.85,2.721s-0.283,1.918-0.85,2.715
		c-0.567,0.797-1.534,1.195-2.9,1.195l-0.1,0.01C52.764,21.239,51.799,20.836,51.229,20.036z M55.309,19.391
		c0.25-0.263,0.425-0.555,0.525-0.875c0.073-0.246,0.116-0.48,0.13-0.705c0.013-0.223,0.02-0.385,0.02-0.484
		c0-0.746-0.112-1.291-0.335-1.635c-0.224-0.344-0.469-0.575-0.735-0.695c-0.134-0.061-0.265-0.1-0.395-0.12
		c-0.13-0.021-0.245-0.03-0.345-0.03s-0.215,0.01-0.345,0.03c-0.13,0.021-0.265,0.063-0.405,0.13c-0.267,0.12-0.51,0.352-0.73,0.695
		s-0.33,0.885-0.33,1.625c0,0.133,0.007,0.283,0.02,0.45s0.04,0.337,0.08,0.51c0.08,0.374,0.247,0.717,0.5,1.03
		c0.253,0.313,0.657,0.477,1.21,0.49C54.681,19.793,55.059,19.654,55.309,19.391z"/>
	<path fill="#034EA2" d="M63.044,13.616c0.707,0,1.22,0.124,1.54,0.37c0.32,0.247,0.533,0.517,0.64,0.81
		c0.04,0.127,0.068,0.252,0.085,0.375c0.017,0.124,0.025,0.235,0.025,0.335c0,0.367-0.085,0.66-0.255,0.881
		c-0.17,0.219-0.355,0.383-0.555,0.489c-0.074,0.04-0.145,0.073-0.215,0.101c-0.07,0.026-0.135,0.05-0.195,0.069v0.021
		c0.066,0.014,0.135,0.029,0.205,0.05s0.142,0.044,0.215,0.069c0.287,0.114,0.552,0.311,0.795,0.591
		c0.244,0.28,0.365,0.673,0.365,1.18c0,0.72-0.204,1.222-0.61,1.505c-0.407,0.283-0.857,0.459-1.35,0.525
		c-0.153,0.02-0.304,0.033-0.45,0.04s-0.29,0.01-0.43,0.01h-0.1h-3.54v-7.42h0.1H63.044z M61.064,16.546h1.52
		c0.046,0,0.098-0.003,0.155-0.01s0.115-0.021,0.175-0.04c0.133-0.04,0.255-0.117,0.365-0.23s0.165-0.275,0.165-0.489
		c0-0.24-0.079-0.434-0.235-0.58c-0.157-0.146-0.392-0.22-0.705-0.22h-1.44V16.546z M61.064,19.676h1.72
		c0.047,0,0.11-0.006,0.19-0.02c0.08-0.014,0.164-0.037,0.25-0.07c0.127-0.053,0.245-0.145,0.355-0.275
		c0.11-0.129,0.165-0.314,0.165-0.555c0-0.32-0.108-0.541-0.325-0.664c-0.217-0.124-0.505-0.186-0.865-0.186h-1.49V19.676z"/>
	<path fill="#034EA2" d="M73.754,18.416c-0.013,0.16-0.043,0.342-0.09,0.545c-0.047,0.203-0.117,0.412-0.21,0.625
		c-0.193,0.42-0.523,0.806-0.99,1.155c-0.466,0.35-1.16,0.525-2.08,0.525l-0.1,0.01c-0.087-0.007-0.172-0.012-0.255-0.016
		c-0.083-0.003-0.168-0.008-0.255-0.015c-0.78-0.073-1.495-0.371-2.145-0.895c-0.65-0.523-0.975-1.485-0.975-2.885
		c0-1.188,0.288-2.159,0.865-2.916c0.577-0.756,1.479-1.135,2.705-1.135h0.1c0.92,0,1.615,0.167,2.085,0.5
		c0.47,0.333,0.798,0.703,0.985,1.11c0.1,0.2,0.17,0.396,0.21,0.59s0.063,0.366,0.07,0.521h-0.1h-1.72
		c-0.007-0.067-0.023-0.152-0.05-0.256c-0.027-0.104-0.067-0.208-0.12-0.314c-0.093-0.174-0.244-0.334-0.45-0.48
		s-0.5-0.223-0.88-0.23c-0.586,0.014-1.019,0.252-1.295,0.716c-0.277,0.464-0.415,1.071-0.415,1.825
		c0,0.086,0.008,0.241,0.025,0.465c0.017,0.223,0.068,0.465,0.155,0.725c0.106,0.301,0.281,0.578,0.525,0.835
		c0.243,0.257,0.598,0.392,1.065,0.405c0.394-0.014,0.693-0.106,0.9-0.28c0.207-0.173,0.357-0.363,0.45-0.569
		c0.046-0.101,0.082-0.199,0.105-0.295c0.023-0.098,0.038-0.186,0.045-0.266h0.1H73.754z"/>
	<path fill="#034EA2" d="M79.144,13.616h0.1h2.06l-2.98,3.39l3.15,4.03h-0.1h-2.15l-2.55-3.53v3.53h-0.1h-1.75v-7.42h0.1h1.75v3.03
		L79.144,13.616z"/>
	<path fill="#034EA2" d="M86.874,13.616h0.1h1.75v7.42h-0.1h-1.75v-4.681l-2.86,4.681h-0.1h-1.75v-7.42h0.1h1.75v4.63L86.874,13.616
		z"/>
	<path fill="#034EA2" d="M95.014,13.616h0.1h1.75v7.42h-0.1h-1.75v-4.681l-2.86,4.681h-0.1h-1.75v-7.42h0.1h1.75v4.63L95.014,13.616
		z M92.714,11.796c0,0.2,0.053,0.35,0.16,0.45c0.107,0.1,0.227,0.167,0.36,0.2c0.06,0.02,0.122,0.035,0.185,0.045
		c0.063,0.01,0.119,0.015,0.165,0.015c0.047,0,0.102-0.005,0.165-0.015c0.063-0.01,0.128-0.025,0.195-0.045
		c0.126-0.04,0.243-0.11,0.35-0.21c0.107-0.1,0.16-0.247,0.16-0.44h0.1h1.18c-0.007,0.08-0.025,0.175-0.055,0.285
		c-0.03,0.11-0.079,0.222-0.145,0.335c-0.12,0.213-0.325,0.407-0.615,0.58c-0.29,0.173-0.718,0.26-1.285,0.26h-0.1
		c-0.72,0-1.245-0.148-1.575-0.445c-0.33-0.296-0.505-0.635-0.525-1.015h0.1H92.714z"/>
	<path fill="#034EA2" d="M98.494,17.536h0.1h3.06v1.33h-0.1h-3.061V17.536z"/>
	<path fill="#034EA2" d="M105.133,21.036h-0.1h-1.75v-7.42h0.1h1.75v2.79h2.601v-2.79h0.1h1.75v7.42h-0.1h-1.75v-3.19h-2.601V21.036
		z"/>
	<path fill="#034EA2" d="M114.923,13.616l2.79,7.42h-0.1h-1.851l-0.479-1.39h-2.59l-0.471,1.39h-0.1h-1.85l2.779-7.42h0.101H114.923
		z M114.904,18.387l-0.91-2.681l-0.92,2.681H114.904z"/>
	<path fill="#034EA2" d="M118.454,17.536h0.101h3.06v1.33h-0.1h-3.061V17.536z"/>
	<path fill="#034EA2" d="M130.833,19.596l-0.09,3.12h-0.1h-1.54v-1.68h-4.92v1.68h-0.101h-1.54l-0.09-3.12h0.73
		c0.42-0.593,0.706-1.234,0.859-1.925s0.233-1.468,0.24-2.335l0.02-1.72h0.101h5.38v5.979H130.833z M126.053,15.057l-0.01,0.879
		c-0.007,0.781-0.07,1.457-0.189,2.031c-0.12,0.572-0.344,1.116-0.67,1.629h2.75v-4.539H126.053z"/>
	<path fill="#034EA2" d="M132.278,20.036c-0.569-0.8-0.854-1.703-0.854-2.71c0-1.014,0.285-1.92,0.854-2.721
		c0.57-0.799,1.535-1.199,2.896-1.199h0.1c1.367,0,2.333,0.4,2.9,1.199c0.566,0.801,0.85,1.707,0.85,2.721s-0.283,1.918-0.85,2.715
		c-0.567,0.797-1.533,1.195-2.9,1.195l-0.1,0.01C133.813,21.239,132.848,20.836,132.278,20.036z M136.358,19.391
		c0.25-0.263,0.425-0.555,0.525-0.875c0.073-0.246,0.116-0.48,0.13-0.705c0.014-0.223,0.02-0.385,0.02-0.484
		c0-0.746-0.111-1.291-0.335-1.635c-0.223-0.344-0.468-0.575-0.734-0.695c-0.134-0.061-0.266-0.1-0.396-0.12s-0.245-0.03-0.345-0.03
		s-0.215,0.01-0.345,0.03s-0.266,0.063-0.405,0.13c-0.267,0.12-0.51,0.352-0.73,0.695c-0.22,0.344-0.329,0.885-0.329,1.625
		c0,0.133,0.006,0.283,0.02,0.45s0.04,0.337,0.08,0.51c0.08,0.374,0.246,0.717,0.5,1.03c0.253,0.313,0.656,0.477,1.21,0.49
		C135.73,19.793,136.108,19.654,136.358,19.391z"/>
	<path fill="#034EA2" d="M142.113,21.036h-0.1h-1.75v-7.42h0.1h1.75v2.79h2.601v-2.79h0.1h1.75v7.42h-0.1h-1.75v-3.19h-2.601V21.036
		z"/>
	<path fill="#034EA2" d="M152.383,13.616h0.1h1.9l-2.41,5.899c-0.207,0.5-0.43,0.865-0.67,1.096c-0.24,0.229-0.487,0.382-0.74,0.455
		c-0.153,0.046-0.305,0.075-0.455,0.085c-0.149,0.01-0.295,0.015-0.435,0.015l-0.101,0.01c-0.146-0.007-0.283-0.017-0.41-0.029
		c-0.126-0.014-0.253-0.03-0.38-0.051c-0.053-0.006-0.106-0.017-0.16-0.029c-0.053-0.014-0.109-0.023-0.17-0.03v-1.44h0.101
		c0.1,0.027,0.208,0.049,0.325,0.065c0.116,0.017,0.241,0.028,0.375,0.035c0.22-0.007,0.393-0.059,0.52-0.155s0.22-0.201,0.28-0.314
		c0.02-0.041,0.038-0.08,0.055-0.121c0.017-0.039,0.028-0.079,0.035-0.119l-2.75-5.37h0.1h2.091l1.56,3.5L152.383,13.616z"/>
	<path fill="#034EA2" d="M163.003,13.616h0.1h2.06l-2.979,3.39l3.15,4.03h-0.101h-2.149l-2.551-3.53v3.53h-0.1h-1.75v-7.42h0.1h1.75
		v3.03L163.003,13.616z"/>
	<path fill="#034EA2" d="M166.538,20.036c-0.569-0.8-0.854-1.703-0.854-2.71c0-1.014,0.285-1.92,0.854-2.721
		c0.57-0.799,1.535-1.199,2.896-1.199h0.1c1.367,0,2.333,0.4,2.9,1.199c0.566,0.801,0.85,1.707,0.85,2.721s-0.283,1.918-0.85,2.715
		c-0.567,0.797-1.533,1.195-2.9,1.195l-0.1,0.01C168.073,21.239,167.108,20.836,166.538,20.036z M170.618,19.391
		c0.25-0.263,0.425-0.555,0.525-0.875c0.073-0.246,0.116-0.48,0.13-0.705c0.014-0.223,0.02-0.385,0.02-0.484
		c0-0.746-0.111-1.291-0.335-1.635c-0.223-0.344-0.468-0.575-0.734-0.695c-0.134-0.061-0.266-0.1-0.396-0.12s-0.245-0.03-0.345-0.03
		s-0.215,0.01-0.345,0.03s-0.266,0.063-0.405,0.13c-0.267,0.12-0.51,0.352-0.73,0.695c-0.22,0.344-0.329,0.885-0.329,1.625
		c0,0.133,0.006,0.283,0.02,0.45s0.04,0.337,0.08,0.51c0.08,0.374,0.246,0.717,0.5,1.03c0.253,0.313,0.656,0.477,1.21,0.49
		C169.99,19.793,170.368,19.654,170.618,19.391z"/>
	<path fill="#034EA2" d="M173.873,19.596h0.101c0.053,0.008,0.102,0.012,0.145,0.016c0.044,0.004,0.085,0.005,0.125,0.005
		c0.601-0.013,0.976-0.261,1.125-0.74c0.15-0.479,0.229-1.054,0.235-1.72l0.05-3.54h0.1h5.49v7.42h-0.1h-1.75v-5.979h-1.99
		l-0.05,2.59c-0.007,0.193-0.017,0.413-0.03,0.66c-0.014,0.246-0.05,0.5-0.109,0.76c-0.12,0.5-0.365,0.96-0.735,1.38
		s-0.985,0.63-1.845,0.63l-0.101,0.01c-0.1-0.007-0.205-0.015-0.314-0.024c-0.11-0.011-0.226-0.019-0.346-0.025V19.596z"/>
	<path fill="#034EA2" d="M182.172,19.596h0.101c0.053,0.008,0.102,0.012,0.145,0.016c0.044,0.004,0.085,0.005,0.125,0.005
		c0.601-0.013,0.976-0.261,1.125-0.74c0.15-0.479,0.229-1.054,0.235-1.72l0.05-3.54h0.1h5.49v7.42h-0.1h-1.75v-5.979h-1.99
		l-0.05,2.59c-0.007,0.193-0.017,0.413-0.03,0.66c-0.014,0.246-0.05,0.5-0.109,0.76c-0.12,0.5-0.365,0.96-0.735,1.38
		s-0.985,0.63-1.845,0.63l-0.101,0.01c-0.1-0.007-0.205-0.015-0.314-0.024c-0.11-0.011-0.226-0.019-0.346-0.025V19.596z"/>
	<path fill="#034EA2" d="M196.602,16.566v1.359h-3.63v1.67h4.221v1.44h-0.101h-5.97v-7.42h0.1h5.87v1.44h-4.12v1.51H196.602z"/>
	<path fill="#034EA2" d="M205.813,19.596l-0.09,3.12h-0.1h-1.54v-1.68h-4.92v1.68h-0.101h-1.54l-0.09-3.12h0.73
		c0.42-0.593,0.706-1.234,0.859-1.925s0.233-1.468,0.24-2.335l0.02-1.72h0.101h5.38v5.979H205.813z M201.033,15.057l-0.01,0.879
		c-0.007,0.781-0.07,1.457-0.189,2.031c-0.12,0.572-0.344,1.116-0.67,1.629h2.75v-4.539H201.033z"/>
	<path fill="#034EA2" d="M210.302,17.776l-2.239,3.26h-0.101h-2.109l2.979-3.97l-2.89-3.45h0.1h2.061l2.199,2.93v-2.93h0.101h1.75
		v2.93l2.2-2.93h0.1h2.06l-2.89,3.45l2.98,3.97h-0.101h-2.12l-2.229-3.26v3.26h-0.101h-1.75V17.776z"/>
	<path fill="#034EA2" d="M227.663,18.416c-0.014,0.16-0.043,0.342-0.09,0.545s-0.116,0.412-0.21,0.625
		c-0.193,0.42-0.523,0.806-0.99,1.155s-1.16,0.525-2.08,0.525l-0.1,0.01c-0.087-0.007-0.172-0.012-0.255-0.016
		c-0.084-0.003-0.169-0.008-0.255-0.015c-0.78-0.073-1.495-0.371-2.146-0.895c-0.649-0.523-0.975-1.485-0.975-2.885
		c0-1.188,0.288-2.159,0.865-2.916c0.576-0.756,1.478-1.135,2.704-1.135h0.101c0.92,0,1.615,0.167,2.085,0.5
		c0.47,0.333,0.798,0.703,0.985,1.11c0.1,0.2,0.17,0.396,0.21,0.59s0.063,0.366,0.069,0.521h-0.1h-1.72
		c-0.007-0.067-0.023-0.152-0.051-0.256c-0.026-0.104-0.066-0.208-0.119-0.314c-0.094-0.174-0.244-0.334-0.45-0.48
		c-0.207-0.146-0.5-0.223-0.88-0.23c-0.587,0.014-1.019,0.252-1.295,0.716c-0.277,0.464-0.415,1.071-0.415,1.825
		c0,0.086,0.008,0.241,0.024,0.465c0.017,0.223,0.068,0.465,0.155,0.725c0.106,0.301,0.281,0.578,0.524,0.835
		c0.244,0.257,0.599,0.392,1.065,0.405c0.394-0.014,0.693-0.106,0.9-0.28c0.206-0.173,0.356-0.363,0.449-0.569
		c0.047-0.101,0.082-0.199,0.105-0.295c0.023-0.098,0.038-0.186,0.045-0.266h0.1H227.663z"/>
	<path fill="#034EA2" d="M232.562,13.616c0.706,0,1.22,0.124,1.54,0.37s0.533,0.517,0.64,0.81c0.04,0.127,0.068,0.252,0.085,0.375
		c0.017,0.124,0.025,0.235,0.025,0.335c0,0.367-0.085,0.66-0.255,0.881c-0.17,0.219-0.355,0.383-0.556,0.489
		c-0.073,0.04-0.145,0.073-0.215,0.101c-0.069,0.026-0.135,0.05-0.194,0.069v0.021c0.066,0.014,0.135,0.029,0.204,0.05
		c0.07,0.021,0.142,0.044,0.216,0.069c0.286,0.114,0.551,0.311,0.795,0.591c0.243,0.28,0.364,0.673,0.364,1.18
		c0,0.72-0.203,1.222-0.609,1.505c-0.407,0.283-0.856,0.459-1.351,0.525c-0.153,0.02-0.303,0.033-0.449,0.04
		c-0.147,0.007-0.29,0.01-0.431,0.01h-0.1h-3.54v-7.42h0.1H232.562z M230.582,16.546h1.521c0.047,0,0.098-0.003,0.155-0.01
		c0.056-0.007,0.114-0.021,0.175-0.04c0.133-0.04,0.255-0.117,0.365-0.23c0.109-0.113,0.164-0.275,0.164-0.489
		c0-0.24-0.078-0.434-0.234-0.58c-0.157-0.146-0.392-0.22-0.705-0.22h-1.44V16.546z M230.582,19.676h1.721
		c0.046,0,0.109-0.006,0.189-0.02s0.163-0.037,0.25-0.07c0.127-0.053,0.245-0.145,0.355-0.275c0.109-0.129,0.165-0.314,0.165-0.555
		c0-0.32-0.108-0.541-0.325-0.664c-0.217-0.124-0.505-0.186-0.865-0.186h-1.49V19.676z"/>
	<path fill="#034EA2" d="M239.882,18.477l-1.45,2.56h-0.1h-2.08l1.75-2.7c-0.007,0-0.012,0-0.016,0c-0.003,0-0.008,0-0.015,0
		c-0.467-0.073-0.896-0.29-1.29-0.65c-0.394-0.359-0.59-0.92-0.59-1.68c0-0.673,0.146-1.175,0.439-1.505
		c0.294-0.33,0.617-0.562,0.971-0.695c0.233-0.08,0.458-0.131,0.675-0.155s0.392-0.035,0.525-0.035h0.1h3.76v7.42h-0.1h-1.75v-2.56
		H239.882z M239.182,15.057c-0.054,0-0.111,0.003-0.175,0.01c-0.063,0.006-0.125,0.014-0.186,0.02
		c-0.193,0.04-0.371,0.131-0.534,0.27c-0.164,0.141-0.245,0.364-0.245,0.671c0,0.007,0,0.012,0,0.015c0,0.004,0,0.009,0,0.016
		c0.006,0.246,0.09,0.471,0.25,0.674c0.16,0.204,0.477,0.306,0.949,0.306h1.471v-1.979H239.182z"/>
	<path fill="#034EA2" d="M245.522,18.486c0.014,0.42,0.122,0.727,0.325,0.92s0.428,0.32,0.675,0.38
		c0.127,0.04,0.25,0.065,0.37,0.075s0.227,0.015,0.32,0.015c0.546-0.007,0.923-0.111,1.13-0.315c0.206-0.203,0.316-0.428,0.33-0.674
		c0-0.014,0-0.025,0-0.035s0-0.019,0-0.025c0-0.273-0.074-0.472-0.221-0.596c-0.146-0.123-0.307-0.204-0.479-0.244
		c-0.106-0.027-0.212-0.043-0.315-0.051c-0.104-0.006-0.188-0.01-0.255-0.01h-1.05v-1.359h0.87c0.066,0,0.142-0.002,0.225-0.006
		c0.084-0.003,0.169-0.015,0.255-0.034c0.187-0.034,0.357-0.108,0.511-0.226c0.153-0.116,0.229-0.305,0.229-0.564
		c0-0.246-0.075-0.436-0.225-0.565c-0.15-0.13-0.318-0.222-0.505-0.274c-0.134-0.047-0.262-0.075-0.386-0.086
		c-0.123-0.01-0.215-0.015-0.274-0.015c-0.067,0-0.137,0.004-0.21,0.011c-0.073,0.006-0.146,0.02-0.221,0.039
		c-0.213,0.047-0.409,0.155-0.59,0.325c-0.18,0.171-0.276,0.455-0.29,0.855h-0.1h-1.71c0.047-0.927,0.345-1.59,0.895-1.99
		c0.551-0.4,1.339-0.6,2.365-0.6h0.101c0.953,0,1.646,0.13,2.079,0.39c0.434,0.26,0.724,0.543,0.87,0.85
		c0.067,0.146,0.112,0.292,0.136,0.436c0.022,0.143,0.034,0.271,0.034,0.385c0,0.467-0.114,0.818-0.345,1.055
		c-0.229,0.237-0.484,0.402-0.765,0.495c-0.047,0.021-0.094,0.035-0.141,0.046c-0.046,0.01-0.093,0.021-0.14,0.034v0.021
		c0.561,0.106,0.97,0.316,1.23,0.63c0.26,0.313,0.39,0.729,0.39,1.25c0,0.739-0.247,1.26-0.74,1.56s-1.033,0.49-1.62,0.57
		c-0.187,0.02-0.37,0.035-0.55,0.045s-0.354,0.015-0.52,0.015l-0.101,0.011c-0.173-0.007-0.359-0.018-0.56-0.03
		c-0.2-0.014-0.4-0.037-0.601-0.07c-0.54-0.093-1.038-0.328-1.494-0.705c-0.457-0.376-0.702-1.021-0.735-1.935h0.1H245.522z"/>
	<path fill="#034EA2" d="M256.652,13.616h0.1h1.75v7.42h-0.1h-1.75v-4.681l-2.86,4.681h-0.1h-1.75v-7.42h0.1h1.75v4.63
		L256.652,13.616z"/>
	<path fill="#034EA2" d="M268.402,13.616h0.1h1.75v7.42h-0.1h-1.75v-4.681l-2.86,4.681h-0.1h-1.75v-7.42h0.1h1.75v4.63
		L268.402,13.616z"/>
	<path fill="#034EA2" d="M280.152,13.616h0.1h1.75v7.42h-0.1h-1.75v-4.681l-2.86,4.681h-0.1h-1.75v-7.42h0.1h1.75v4.63
		L280.152,13.616z"/>
	<path fill="#034EA2" d="M285.431,21.036h-0.1h-1.75v-7.42h0.1h1.75v2.79h2.601v-2.79h0.1h1.75v7.42h-0.1h-1.75v-3.19h-2.601V21.036
		z"/>
	<path fill="#034EA2" d="M294.762,20.267h-0.28c-1.14,0-2.006-0.28-2.6-0.841c-0.594-0.56-0.89-1.283-0.89-2.17
		s0.296-1.609,0.89-2.17c0.594-0.56,1.46-0.84,2.6-0.84h0.28v-1.05h0.101h1.75v1.05h0.279c1.141,0,2.007,0.28,2.601,0.84
		c0.593,0.561,0.89,1.283,0.89,2.17s-0.297,1.61-0.89,2.17c-0.594,0.561-1.46,0.841-2.601,0.841h-0.279v1.05h-0.101h-1.75V20.267z
		 M294.922,15.646h-0.04c-0.767,0-1.287,0.16-1.56,0.479c-0.273,0.32-0.41,0.696-0.41,1.13c0,0.607,0.188,1.027,0.564,1.26
		c0.377,0.234,0.846,0.351,1.405,0.351h0.04V15.646z M296.493,18.866c0.56,0,1.028-0.116,1.404-0.351
		c0.377-0.232,0.565-0.652,0.565-1.26c0-0.434-0.137-0.81-0.41-1.13c-0.273-0.319-0.793-0.479-1.56-0.479h-0.04v3.22H296.493z"/>
	<path fill="#034EA2" d="M302.006,20.036c-0.569-0.8-0.854-1.703-0.854-2.71c0-1.014,0.285-1.92,0.854-2.721
		c0.57-0.799,1.535-1.199,2.896-1.199h0.1c1.367,0,2.333,0.4,2.9,1.199c0.566,0.801,0.85,1.707,0.85,2.721s-0.283,1.918-0.85,2.715
		c-0.567,0.797-1.533,1.195-2.9,1.195l-0.1,0.01C303.542,21.239,302.577,20.836,302.006,20.036z M306.086,19.391
		c0.25-0.263,0.425-0.555,0.525-0.875c0.073-0.246,0.116-0.48,0.13-0.705c0.014-0.223,0.02-0.385,0.02-0.484
		c0-0.746-0.111-1.291-0.335-1.635c-0.223-0.344-0.468-0.575-0.734-0.695c-0.134-0.061-0.266-0.1-0.396-0.12s-0.245-0.03-0.345-0.03
		s-0.215,0.01-0.345,0.03s-0.266,0.063-0.405,0.13c-0.267,0.12-0.51,0.352-0.73,0.695c-0.22,0.344-0.329,0.885-0.329,1.625
		c0,0.133,0.006,0.283,0.02,0.45s0.04,0.337,0.08,0.51c0.08,0.374,0.246,0.717,0.5,1.03c0.253,0.313,0.656,0.477,1.21,0.49
		C305.458,19.793,305.836,19.654,306.086,19.391z"/>
	<path fill="#034EA2" d="M313.551,13.616c0.047,0,0.094,0,0.141,0c0.046,0,0.093,0.003,0.14,0.01
		c0.613,0.034,1.175,0.213,1.686,0.54c0.51,0.326,0.765,0.943,0.765,1.85c0,0.734-0.157,1.271-0.47,1.61
		c-0.313,0.341-0.657,0.57-1.03,0.69c-0.247,0.08-0.485,0.128-0.715,0.145c-0.23,0.018-0.415,0.025-0.556,0.025h-1.67v2.55h-0.1
		h-1.75v-7.42h0.1H313.551z M311.841,17.046h1.271c0.394,0,0.7-0.071,0.92-0.215s0.33-0.411,0.33-0.805
		c0-0.366-0.105-0.618-0.315-0.755s-0.521-0.205-0.935-0.205h-1.271V17.046z"/>
	<path fill="#034EA2" d="M319.202,15.936v5.101h-0.1h-1.75v-7.42h0.1h2.46l1.721,4.96l1.72-4.96h0.1h2.46v7.42h-0.1h-1.75v-5.101
		l-1.79,5.101h-0.1h-1.181L319.202,15.936z"/>
	<path fill="#034EA2" d="M331.251,13.616l2.79,7.42h-0.1h-1.851l-0.479-1.39h-2.59l-0.471,1.39h-0.1h-1.85l2.779-7.42h0.101H331.251
		z M331.232,18.387l-0.91-2.681l-0.92,2.681H331.232z"/>
	<path fill="#034EA2" d="M334.082,15.057v-1.44h0.101h6.229v1.44h-2.239v5.979h-0.101h-1.75v-5.979H334.082z"/>
	<path fill="#034EA2" d="M346.051,13.616h0.1h1.75v7.42h-0.1h-1.75v-4.681l-2.86,4.681h-0.1h-1.75v-7.42h0.1h1.75v4.63
		L346.051,13.616z"/>
	<path fill="#034EA2" d="M353.802,13.616h0.1h2.06l-2.979,3.39l3.15,4.03h-0.101h-2.149l-2.551-3.53v3.53h-0.1h-1.75v-7.42h0.1h1.75
		v3.03L353.802,13.616z"/>
	<path fill="#034EA2" d="M361.532,13.616h0.1h1.75v7.42h-0.1h-1.75v-4.681l-2.86,4.681h-0.1h-1.75v-7.42h0.1h1.75v4.63
		L361.532,13.616z"/>
</g>
</svg>
