<?xml version="1.0" encoding="utf-8"?>
<!-- Generator: Adobe Illustrator 16.0.0, SVG Export Plug-In . SVG Version: 6.00 Build 0)  -->
<!DOCTYPE svg PUBLIC "-//W3C//DTD SVG 1.1//EN" "http://www.w3.org/Graphics/SVG/1.1/DTD/svg11.dtd">
<svg version="1.1" id="Слой_1" xmlns="http://www.w3.org/2000/svg" xmlns:xlink="http://www.w3.org/1999/xlink" x="0px" y="0px"
	 width="64px" height="64px" viewBox="0 0 64 64" enable-background="new 0 0 64 64" xml:space="preserve">
<path fill="#286184" d="M64,52c0,6.627-5.373,12-12,12H12C5.373,64,0,58.627,0,52V12C0,5.373,5.373,0,12,0h40
	c6.627,0,12,5.373,12,12V52z"/>
<path fill="#3886B7" d="M64,51.672c0,6.586-5.373,11.926-12,11.926H12c-6.627,0-12-5.34-12-11.926V11.924C0,5.339,5.373,0,12,0h40
	c6.627,0,12,5.339,12,11.924V51.672z"/>
<path fill="#409BD6" d="M64,51.506c0,6.564-5.373,11.887-12,11.887H12c-6.627,0-12-5.32-12-11.887v-39.62C0,5.322,5.373,0,12,0h40
	c6.627,0,12,5.322,12,11.886V51.506z"/>
<path fill="#FFFFFF" d="M55.996,17.116c-1.769,0.78-3.659,1.311-5.654,1.55c2.031-1.221,3.594-3.149,4.33-5.448
	c-1.903,1.125-4.013,1.944-6.256,2.385c-1.795-1.914-4.351-3.108-7.189-3.108c-5.436,0-9.846,4.404-9.846,9.84
	c0,0.773,0.09,1.53,0.256,2.25c-8.184-0.413-15.44-4.331-20.298-10.283c-0.852,1.449-1.332,3.141-1.332,4.95
	c0,3.42,1.74,6.429,4.381,8.196c-1.614-0.05-3.136-0.495-4.461-1.23v0.12c0,4.769,3.39,8.754,7.899,9.66
	c-0.828,0.222-1.699,0.342-2.595,0.342c-0.631,0-1.248-0.061-1.852-0.174c1.255,3.911,4.891,6.759,9.202,6.84
	c-3.373,2.64-7.621,4.212-12.232,4.212c-0.795,0-1.578-0.045-2.349-0.136c4.36,2.791,9.534,4.423,15.096,4.423
	c18.113,0,28.021-15,28.021-28.014c0-0.429-0.013-0.853-0.03-1.275c1.92-1.39,3.594-3.12,4.914-5.1H55.996z"/>
</svg>
