<?xml version="1.0" encoding="utf-8"?>
<!-- Generator: Adobe Illustrator 16.0.0, SVG Export Plug-In . SVG Version: 6.00 Build 0)  -->
<!DOCTYPE svg PUBLIC "-//W3C//DTD SVG 1.1//EN" "http://www.w3.org/Graphics/SVG/1.1/DTD/svg11.dtd">
<svg version="1.1" id="Слой_1" xmlns="http://www.w3.org/2000/svg" xmlns:xlink="http://www.w3.org/1999/xlink" x="0px" y="0px"
	 width="64px" height="64px" viewBox="0 0 64 64" enable-background="new 0 0 64 64" xml:space="preserve">
<path fill="#314255" d="M64,52c0,6.627-5.373,12-12,12H12C5.373,64,0,58.627,0,52V12C0,5.373,5.373,0,12,0h40
	c6.627,0,12,5.373,12,12V52z"/>
<path fill="#536D8B" d="M64,51.672c0,6.586-5.373,11.926-12,11.926H12c-6.627,0-12-5.34-12-11.926V11.924C0,5.339,5.373,0,12,0h40
	c6.627,0,12,5.339,12,11.924V51.672z"/>
<path fill="#6383A8" d="M64,51.506c0,6.564-5.373,11.887-12,11.887H12c-6.627,0-12-5.32-12-11.887v-39.62C0,5.322,5.373,0,12,0h40
	c6.627,0,12,5.322,12,11.886V51.506z"/>
<path fill="#FFFFFF" d="M31.485,45.577h2.872c0,0,0.864-0.096,1.307-0.571c0.411-0.439,0.399-1.259,0.399-1.259
	s-0.06-3.854,1.727-4.42c1.763-0.562,4.021,3.721,6.42,5.364c1.814,1.247,3.188,0.979,3.188,0.979l6.412-0.09
	c0,0,3.351-0.211,1.763-2.844c-0.13-0.217-0.925-1.951-4.765-5.516c-4.021-3.731-3.485-3.128,1.355-9.582
	c2.949-3.931,4.128-6.33,3.759-7.355c-0.35-0.979-2.521-0.721-2.521-0.721l-7.218,0.045c0,0-0.539-0.075-0.93,0.162
	c-0.392,0.231-0.639,0.774-0.639,0.774s-1.14,3.04-2.669,5.629c-3.211,5.459-4.501,5.745-5.023,5.406
	c-1.22-0.793-0.916-3.174-0.916-4.867c0-5.289,0.801-7.494-1.559-8.064c-0.79-0.189-1.366-0.315-3.373-0.336
	c-2.581-0.03-4.755,0.009-5.988,0.612c-0.822,0.402-1.455,1.298-1.072,1.35c0.481,0.06,1.561,0.292,2.13,1.071
	c0.744,1.005,0.72,3.264,0.72,3.264s0.419,6.225-0.99,6.999c-0.978,0.532-2.31-0.551-5.178-5.501c-1.47-2.535-2.574-5.34-2.574-5.34
	s-0.216-0.522-0.6-0.804c-0.459-0.339-1.104-0.451-1.104-0.451l-6.862,0.051c0,0-1.026,0.03-1.404,0.481
	c-0.335,0.395-0.029,1.217-0.029,1.217s5.369,12.561,11.454,18.895c5.574,5.805,11.904,5.424,11.904,5.424V45.577z"/>
</svg>
